<svg width="20" height="20" viewBox="0 0 20 20" fill="none" xmlns="http://www.w3.org/2000/svg">
<g id="Icon_Call">
<path id="Vector" d="M6.15385 0C7.00721 0 7.69231 0.685095 7.69231 1.53846V6.15385C7.69231 7.00721 7.00721 7.69231 6.15385 7.69231H5.0601C6.09375 11.1779 8.82211 13.9123 12.3077 14.9399V13.8462C12.3077 12.9928 12.9988 12.3077 13.8462 12.3077H18.4615C19.3149 12.3077 20 12.9928 20 13.8462V16.1538C20 18.2752 18.2813 20 16.1538 20H15.3846C6.91707 20 0 13.0829 0 4.61538V3.84615C0 1.72476 1.72476 0 3.84615 0H6.15385Z" fill="#D2B88F"/>
</g>
</svg>
