<svg width="20" height="20" viewBox="0 0 20 20" fill="none" xmlns="http://www.w3.org/2000/svg">
<g id="Icon_Clock">
<path id="Vector" fill-rule="evenodd" clip-rule="evenodd" d="M0 10C0 4.47715 4.47715 0 10 0C15.5228 0 20 4.47715 20 10C20 15.5228 15.5228 20 10 20C4.47715 20 0 15.5228 0 10ZM13.8321 12.5547C13.5257 13.0142 12.9048 13.1384 12.4453 12.8321L9.8451 11.0986C9.3171 10.7466 9 10.1541 9 9.5196V9.5V5C9 4.44772 9.4477 4 10 4C10.5523 4 11 4.44772 11 5V9.4648L13.5547 11.1679C14.0142 11.4743 14.1384 12.0952 13.8321 12.5547Z" fill="#D2B88F"/>
</g>
</svg>
