<svg width="15" height="20" viewBox="0 0 15 20" fill="none" xmlns="http://www.w3.org/2000/svg">
<g id="Icon_document">
<path id="Vector" d="M10.9646 5.86C10.0197 5.86 9.23228 5.08 9.23228 4.1V0H1.73228C0.787402 0 0 0.78 0 1.76V18.24C0 19.2 0.767717 20 1.73228 20H13.2677C14.2126 20 15 19.22 15 18.24V5.86H10.9646ZM10.9449 16.1H4.05512C3.74016 16.1 3.48425 15.84 3.48425 15.52C3.48425 15.2 3.74016 14.94 4.05512 14.94H10.9449C11.2598 14.94 11.5157 15.2 11.5157 15.52C11.5157 15.84 11.2598 16.1 10.9449 16.1ZM3.48425 12.18C3.48425 11.86 3.74016 11.6 4.05512 11.6H10.9252C11.2402 11.6 11.4961 11.86 11.4961 12.18C11.4961 12.5 11.2402 12.76 10.9252 12.76H4.05512C3.74016 12.76 3.48425 12.5 3.48425 12.18ZM10.9449 9.42H4.05512C3.74016 9.42 3.48425 9.16 3.48425 8.84C3.48425 8.52 3.74016 8.26 4.05512 8.26H10.9449C11.2598 8.26 11.5157 8.52 11.5157 8.84C11.5157 9.16 11.2598 9.42 10.9449 9.42ZM10.9646 4.68H14.6654L10.374 0.34V4.1C10.374 4.42 10.6496 4.68 10.9646 4.68Z" fill="#D2B88F"/>
</g>
</svg>
