<svg width="20" height="21" viewBox="0 0 20 21" fill="none" xmlns="http://www.w3.org/2000/svg">
<path fill-rule="evenodd" clip-rule="evenodd" d="M9.94853 0.766857C7.51746 0.614056 5.9879 1.63983 4.58003 2.7715C4.40415 3.01279 4.20869 3.24244 3.99595 3.45761C2.36353 5.47754 1.38012 7.8425 1.19068 10.2037C1.00132 12.5649 1.61592 14.7974 2.94407 16.5719C5.4435 19.8258 12.377 22.3283 16.4187 17.9951C17.0463 17.3253 17.532 16.5549 17.8414 15.7386C18.1509 14.9224 18.2764 14.0802 18.2092 13.2715C18.1221 11.9562 17.4935 10.8067 16.4533 10.061C15.4133 9.31546 14.0414 9.03081 12.6218 9.26614C11.4874 9.40941 10.3891 9.22842 9.4694 8.74655C8.74724 8.37292 8.15099 7.83348 7.72475 7.16832C7.29856 6.50324 7.05352 5.72946 7.00774 4.90461C6.95501 4.19915 7.07394 3.46509 7.35571 2.75687L7.37046 2.71302C7.58754 2.21048 7.9487 1.75696 8.40785 1.41032C8.86702 1.06368 9.40336 0.839629 9.94853 0.766857Z" fill="#D2B88F"/>
</svg>
