<svg width="20" height="20" viewBox="0 0 20 20" fill="none" xmlns="http://www.w3.org/2000/svg">
<g id="Icon_Email">
<g id="Vector">
<path d="M20 15.0804V5.77406L14.6625 10.4274L20 15.0804Z" fill="#D2B88F"/>
<path d="M16.8932 0H3.1068C1.39109 0 0 1.39105 0 3.1068V3.19781L8.90172 10.9584C9.21879 11.2337 9.60641 11.3695 10 11.3698C10.3937 11.3695 10.782 11.2337 11.0983 10.9584L20 3.19781V3.1068C20 1.39105 18.6089 0 16.8932 0Z" fill="#D2B88F"/>
<path d="M12.3741 12.4223C11.696 13.0143 10.845 13.3123 10 13.3116C9.15508 13.3124 8.30476 13.0139 7.62594 12.4223L6.81512 11.7154L0.0804297 17.5865C0.395977 18.9681 1.63 20 3.1068 20H16.8932C18.3708 20 19.6041 18.9681 19.9196 17.5865L13.1849 11.7154L12.3741 12.4223Z" fill="#D2B88F"/>
<path d="M0 5.77406V15.0804L5.33758 10.427L0 5.77406Z" fill="#D2B88F"/>
</g>
</g>
</svg>
