<svg width="16" height="11" viewBox="0 0 16 11" fill="none" xmlns="http://www.w3.org/2000/svg">
<g id="Icon_eye">
<path id="Icon_eye_2" fill-rule="evenodd" clip-rule="evenodd" d="M8 8C6.53919 8 5.35041 6.87833 5.35041 5.5C5.35041 4.12167 6.53919 3 8 3C9.46081 3 10.6496 4.12167 10.6496 5.5C10.6496 6.87833 9.46081 8 8 8ZM15.9029 5.31417C14.3387 2.345 11.3111 0.5 8 0.5C4.68889 0.5 1.66129 2.345 0.09715 5.31417L0 5.5L0.09715 5.68583C1.66129 8.655 4.6889 10.5 8 10.5C11.3111 10.5 14.3387 8.655 15.9029 5.68583L16 5.5L15.9029 5.31417Z" fill="#D2B88F"/>
</g>
</svg>
