<svg width="43" height="21" viewBox="0 0 43 21" fill="none" xmlns="http://www.w3.org/2000/svg">
<path id="Vector" d="M41.5714 9.07413C42.3604 9.07413 43 9.71252 43 10.5C43 11.2875 42.3604 11.9259 41.5714 11.9259V9.07413ZM0.418285 11.5082C-0.139427 10.9514 -0.139427 10.0486 0.418285 9.49174L9.50977 0.417625C10.0677 -0.139208 10.9722 -0.139208 11.5301 0.417625C12.088 0.974459 12.088 1.87726 11.5301 2.4341L3.44885 10.5L11.5301 18.5659C12.088 19.1227 12.088 20.0256 11.5301 20.5824C10.9722 21.1392 10.0677 21.1392 9.50977 20.5824L0.418285 11.5082ZM41.5714 11.9259H1.42857V9.07413H41.5714V11.9259Z" fill="#DCC7B7"/>
</svg>
