<svg width="20" height="20" viewBox="0 0 20 20" fill="none" xmlns="http://www.w3.org/2000/svg">
<g id="Icon_Location">
<path id="Vector" d="M9.5 0C5.35813 0 2 3.35813 2 7.5C2 9.13094 2.53469 10.6275 3.42344 11.8531C3.43938 11.8825 3.44187 11.9153 3.46 11.9434L8.46 19.4434C8.69187 19.7913 9.0825 20 9.5 20C9.9175 20 10.3081 19.7913 10.54 19.4434L15.54 11.9434C15.5584 11.9153 15.5606 11.8825 15.5766 11.8531C16.4653 10.6275 17 9.13094 17 7.5C17 3.35813 13.6419 0 9.5 0ZM9.5 10C8.11938 10 7 8.88062 7 7.5C7 6.11938 8.11938 5 9.5 5C10.8806 5 12 6.11938 12 7.5C12 8.88062 10.8806 10 9.5 10Z" fill="#D2B88F"/>
</g>
</svg>
