<svg width="54" height="69" viewBox="0 0 54 69" fill="none" xmlns="http://www.w3.org/2000/svg">
<path id="Vector" d="M6.79889 41.5151L6.80736 41.5281L6.81603 41.5411L22.1494 64.4161C23.2338 66.0339 25.0563 67 27 67C28.9437 67 30.7662 66.0339 31.8506 64.4161L47.184 41.5411L47.1883 41.5346L47.1925 41.5282C47.2955 41.372 47.3634 41.2277 47.4083 41.118C47.4102 41.1133 47.4121 41.1086 47.414 41.104C50.2753 37.0879 52 32.1991 52 26.875C52 13.1275 40.796 2 27 2C13.204 2 2 13.1275 2 26.875C2 32.1997 3.72504 37.0889 6.58693 41.1053C6.58821 41.1085 6.58951 41.1116 6.59081 41.1149C6.63403 41.221 6.69964 41.3619 6.79889 41.5151ZM27 32.5C23.8604 32.5 21.3333 29.9711 21.3333 26.875C21.3333 23.7789 23.8604 21.25 27 21.25C30.1396 21.25 32.6667 23.7789 32.6667 26.875C32.6667 29.9711 30.1396 32.5 27 32.5Z" fill="#D2B88F" stroke="white" stroke-width="4"/>
</svg>
