<svg width="43" height="21" viewBox="0 0 43 21" fill="none" xmlns="http://www.w3.org/2000/svg">
<path id="Vector" d="M1.42857 9.07413C0.639594 9.07413 0 9.71252 0 10.5C0 11.2875 0.639594 11.9259 1.42857 11.9259V9.07413ZM42.5817 11.5082C43.1394 10.9514 43.1394 10.0486 42.5817 9.49174L33.4902 0.417625C32.9323 -0.139208 32.0278 -0.139208 31.4699 0.417625C30.912 0.974459 30.912 1.87726 31.4699 2.4341L39.5511 10.5L31.4699 18.5659C30.912 19.1227 30.912 20.0256 31.4699 20.5824C32.0278 21.1392 32.9323 21.1392 33.4902 20.5824L42.5817 11.5082ZM1.42857 11.9259H41.5714V9.07413H1.42857V11.9259Z" fill="#DCC7B7"/>
</svg>
