<svg width="27" height="16" viewBox="0 0 27 16" fill="none" xmlns="http://www.w3.org/2000/svg">
<g id="Icon_VK">
<path id="Icon_VK_2" d="M25.9074 1.085C26.086 0.46 25.9074 0 25.0483 0H22.2054C21.4814 0 21.1484 0.395 20.9698 0.835C20.9698 0.835 19.5218 4.49 17.4753 6.86C16.8141 7.545 16.51 7.765 16.148 7.765C15.9694 7.765 15.6943 7.545 15.6943 6.92V1.085C15.6943 0.335 15.4915 0 14.893 0H10.4236C9.96987 0 9.69958 0.35 9.69958 0.675C9.69958 1.385 10.7228 1.55 10.829 3.55V7.89C10.829 8.84 10.6649 9.015 10.3029 9.015C9.33758 9.015 6.99183 5.345 5.60176 1.145C5.32182 0.33 5.0467 0 4.31787 0H1.47498C0.664106 0 0.5 0.395 0.5 0.835C0.5 1.615 1.46533 5.49 4.9936 10.61C7.34418 14.105 10.6553 16 13.6671 16C15.4771 16 15.6991 15.58 15.6991 14.855C15.6991 11.515 15.535 11.2 16.4424 11.2C16.8623 11.2 17.5863 11.42 19.2756 13.105C21.2063 15.105 21.5249 16 22.606 16H25.4489C26.2598 16 26.6701 15.58 26.4336 14.75C25.893 13.005 22.2392 9.415 22.0751 9.175C21.6552 8.615 21.7758 8.365 22.0751 7.865C22.0799 7.86 25.5503 2.8 25.9074 1.085Z" fill="#D2B88F"/>
</g>
</svg>
