<svg width="20" height="20" viewBox="0 0 20 20" fill="none" xmlns="http://www.w3.org/2000/svg">
<path fill-rule="evenodd" clip-rule="evenodd" d="M9.99554 18.1562C8.51339 18.1562 7.0625 17.7589 5.79911 17.0089L5.5 16.8304L2.38393 17.6473L3.21429 14.6071L3.01786 14.2946C2.19196 12.9821 1.75893 11.4688 1.75893 9.91072C1.75893 5.37054 5.45536 1.67411 10 1.67411C12.2009 1.67411 14.2679 2.53125 15.8214 4.08929C17.375 5.64732 18.3304 7.71429 18.3259 9.91518C18.3259 14.4598 14.5357 18.1562 9.99554 18.1562ZM12.8214 11.183C13.0491 11.2634 14.2679 11.8616 14.5134 11.9866C14.7589 12.1071 14.9241 12.1696 14.9821 12.2813C15.0446 12.3839 15.0446 12.8795 14.8393 13.4598C14.6339 14.0402 13.6473 14.567 13.1696 14.6384C12.3839 14.7545 11.7679 14.6964 10.1964 14.0179C7.70982 12.942 6.08929 10.442 5.96429 10.2768C5.84375 10.1116 4.95536 8.93304 4.95536 7.71429C4.95536 6.49554 5.59375 5.89732 5.82143 5.64732C6.04911 5.40179 6.31696 5.33929 6.48214 5.33929C6.64732 5.33929 6.8125 5.33929 6.95536 5.34821C7.10714 5.35714 7.3125 5.29018 7.51339 5.77232C7.71875 6.26786 8.21429 7.48661 8.27679 7.61161C8.33929 7.73661 8.37947 7.87946 8.29911 8.04464C7.82589 8.99107 7.31696 8.95982 7.57143 9.39732C8.53125 11.0446 9.48661 11.6161 10.942 12.3438C11.1875 12.4688 11.3348 12.4464 11.4777 12.2813C11.625 12.1116 12.0982 11.558 12.2634 11.308C12.4286 11.058 12.5938 11.0982 12.8214 11.183Z" fill="#D2B88F"/>
<path fill-rule="evenodd" clip-rule="evenodd" d="M9.99554 0C12.6429 0 15.1339 1.03125 17.0045 2.90625C18.875 4.78125 20 7.26786 20 9.91518C20 15.3795 15.4554 19.8259 9.99554 19.8259H9.99107C8.33036 19.8259 6.70089 19.4107 5.25446 18.6205L0 20L1.40625 14.8661C0.540179 13.3616 0.0848214 11.6563 0.0848214 9.91072C0.0848214 4.44643 4.53125 0 9.99554 0ZM5.79911 17.0089C7.0625 17.7589 8.51339 18.1562 9.99554 18.1562C14.5357 18.1562 18.3259 14.4598 18.3259 9.91518C18.3304 7.71429 17.375 5.64732 15.8214 4.08929C14.2679 2.53125 12.2009 1.67411 10 1.67411C5.45536 1.67411 1.75893 5.37054 1.75893 9.91072C1.75893 11.4688 2.19196 12.9821 3.01786 14.2946L3.21429 14.6071L2.38393 17.6473L5.5 16.8304L5.79911 17.0089Z" fill="#D2B88F"/>
</svg>
