<svg width="731" height="498" viewBox="0 0 731 498" fill="none" xmlns="http://www.w3.org/2000/svg">
<path opacity="0.08" d="M250.944 -135.559C177.966 -111.466 114.444 -65.0237 69.3971 -2.8278C24.3503 59.368 0.0685741 134.156 0 210.917C0.000520646 263.649 11.4337 315.756 33.5139 363.656C47.602 394.163 65.8371 422.584 87.7034 448.113C131.733 499.453 189.138 537.613 253.556 558.363C270.121 563.606 287.03 567.691 304.163 570.588C324.335 574.359 344.778 576.503 365.294 576.999C407.43 577.119 449.262 569.879 488.9 555.605C527.375 541.755 563.271 521.601 595.114 495.97C605.278 487.719 615.019 478.962 624.299 469.731C673.628 420.422 707.754 358.013 722.625 289.912C737.496 221.811 732.488 150.879 708.196 85.536C696.497 53.885 680.418 24.026 660.425 -3.17061C630.352 -44.3476 591.959 -78.7614 547.729 -104.186C503.499 -129.61 454.418 -145.479 403.66 -150.766C383.162 -152.972 362.52 -153.546 341.931 -152.481C311.027 -150.548 280.473 -144.866 250.944 -135.559ZM538.611 506.481C561.978 470.685 573.464 428.449 571.441 385.766C569.418 343.083 553.988 302.12 527.34 268.688C506.34 241.88 479.173 220.528 448.146 206.445C432.471 199.424 415.968 194.414 399.032 191.536C379.252 188.182 359.248 189.672 339.319 186.989C319.612 184.619 300.567 178.389 283.275 168.654C265.984 158.92 250.786 145.873 238.553 130.262C213.48 96.813 202.231 55.023 207.129 13.527C208.567 17.4318 209.69 21.4451 210.488 25.528C221.178 59.702 242.583 89.538 271.545 110.638C300.507 131.737 335.492 142.98 371.34 142.71C437.696 141.518 536.67 85.536 518.906 6.29639C516.17 -5.97581 510.777 -17.5007 503.104 -27.4684C495.431 -37.4361 485.666 -45.6047 474.494 -51.4C433.815 -72.4957 391.269 -56.9162 368.728 -22.4028C359.633 -8.74782 346.626 1.85129 331.407 8.01079C319.666 12.8911 306.979 15.0764 294.279 14.4055C281.58 13.7346 269.194 10.2247 258.035 4.13458C248.351 -1.03702 239.918 -8.2628 233.328 -17.0357V-17.5574C228.765 -23.9326 226.207 -31.5211 225.981 -39.3545C225.755 -47.1879 227.871 -54.9109 232.059 -61.5379C246.918 -84.0285 267.891 -101.82 292.519 -112.824C329.84 -130.49 367.683 -131.907 407.541 -126.763C487.571 -116.558 561.506 -78.716 616.536 -19.7937C676.519 44.932 709.082 130.335 707.398 218.511C705.715 306.687 669.915 390.788 607.505 453.182C598.814 461.858 589.67 470.07 580.111 477.782C566.998 488.347 553.128 497.939 538.611 506.481ZM23.5866 210.917C23.6165 163.077 33.7423 115.78 53.3038 72.11C72.8654 28.44 101.423 -10.6219 137.116 -42.5294C127.057 -16.7116 125.129 11.5579 131.592 38.499C131.592 40.064 132.264 40.959 132.264 40.959C116.59 112.669 124.8 136.225 124.8 136.225L139.131 171.335C129.502 206.146 87.7034 247.816 82.4786 263.47C77.2537 279.124 121.665 290.902 125.547 299.996C129.428 309.091 112.484 328.695 112.484 328.695C112.484 328.695 102.035 337.79 125.397 351.058C148.76 364.327 134.727 361.345 134.727 361.345C117.709 386.094 145.177 386.094 145.177 386.094C145.177 386.094 154.283 388.703 151.671 410.246C150.59 424.797 153.29 439.382 159.508 452.586C200.188 485.087 342.23 425.08 374.848 410.693C386.471 427.087 393.388 446.342 394.852 466.376C396.102 477.671 394.75 489.102 390.899 499.795C387.048 510.487 380.8 520.159 372.633 528.071C364.465 535.983 354.595 541.926 343.776 545.445C332.957 548.964 321.475 549.965 310.209 548.374H309.238C294.336 546.103 279.636 542.664 265.275 538.087C236.547 529.328 209.113 516.794 183.692 500.815C134.542 470.047 94.0417 427.291 66.0057 376.574C37.9698 325.858 23.3205 268.849 23.4373 210.917H23.5866Z" fill="#C4BFA9"/>
</svg>
