<svg width="213" height="48" viewBox="0 0 213 48" fill="none" xmlns="http://www.w3.org/2000/svg">
<g id="&#208;&#155;&#208;&#190;&#208;&#179;&#208;&#190;&#209;&#130;&#208;&#184;&#208;&#191;">
<path d="M17.0584 1.12925C12.0956 2.71521 7.77625 5.77209 4.71396 9.86563C1.65167 13.9592 0.00223345 18.8811 0 23.9321C0.000904747 25.1323 0.092705 26.3308 0.274665 27.5181C0.621415 29.7501 1.29434 31.9233 2.27329 33.9727C3.71685 36.9892 5.79143 39.6841 8.36627 41.8873C10.9412 44.0907 13.9604 45.7547 17.2337 46.7745C18.3522 47.1201 19.4946 47.388 20.6525 47.5764C22.0255 47.8247 23.4169 47.9663 24.8134 47.9999C27.6783 48.0069 30.5225 47.5291 33.217 46.5881C35.8321 45.6799 38.2715 44.3553 40.4343 42.6692C41.1266 42.1403 41.7879 41.5747 42.4153 40.975C45.7355 37.7731 48.0485 33.7277 49.0867 29.3074C50.1248 24.8872 49.8454 20.2731 48.2809 16.0001C46.7164 11.727 43.9308 7.96983 40.2469 5.16397C36.563 2.35812 32.1317 0.618484 27.4665 0.14666C26.0731 0.00208508 24.6701 -0.03568 23.2705 0.0337188C21.1615 0.153086 19.0753 0.520989 17.0584 1.12925ZM36.6181 43.3637C38.2044 41.0089 38.9835 38.2315 38.8451 35.425C38.7066 32.6185 37.6577 29.9253 35.8467 27.727C34.4155 25.9676 32.5703 24.5641 30.4645 23.6328C29.3979 23.1671 28.2747 22.8332 27.1218 22.6389C25.7776 22.4187 24.4218 22.5147 23.0719 22.3397C20.3689 22.0321 17.9031 20.6995 16.2169 18.6352C14.5045 16.4354 13.7325 13.6839 14.0605 10.9495C14.1599 11.2042 14.2362 11.467 14.2884 11.7345C15.0161 13.9826 16.4722 15.9453 18.4419 17.3332C20.4116 18.721 22.7906 19.4606 25.2283 19.4427C29.7398 19.3636 36.472 15.6874 35.2623 10.4752C35.0772 9.6674 34.7106 8.90876 34.1884 8.253C33.6664 7.59725 33.0016 7.06037 32.241 6.68032C31.0184 6.04613 29.5901 5.89059 28.252 6.2459C26.914 6.60121 25.7686 7.44016 25.053 8.58903C24.4414 9.48345 23.566 10.1799 22.54 10.5881C21.7387 10.9111 20.8723 11.0555 20.0052 11.0105C19.1382 10.9656 18.2928 10.7324 17.5318 10.3283C16.8722 9.99251 16.2989 9.51772 15.8546 8.93915L15.8253 8.90527C15.5212 8.48235 15.3543 7.98146 15.346 7.46651C15.3377 6.95155 15.4882 6.44586 15.7787 6.01397C16.7816 4.53211 18.2005 3.35686 19.8694 2.62572C22.3882 1.49631 24.977 1.37208 27.6886 1.71654C33.1337 2.38707 38.164 4.87847 41.9069 8.75844C45.9863 13.0119 48.2038 18.6259 48.0949 24.4242C47.9859 30.2224 45.559 35.755 41.3225 39.8625C40.7328 40.4323 40.1104 40.9697 39.4583 41.472C38.5623 42.1708 37.6128 42.8032 36.6181 43.3637ZM1.58955 23.9321C1.58778 20.7814 2.27453 17.6658 3.60485 14.7892C4.93517 11.9126 6.87909 9.33993 9.3094 7.23938C8.629 8.93677 8.49857 10.7939 8.93539 12.5646C8.96461 12.6719 8.97629 12.7283 8.97629 12.7283C7.91269 17.4436 8.4445 18.991 8.4445 18.991L9.42043 21.3006C8.80098 23.6159 5.96081 26.3829 5.60434 27.3881C5.24786 28.3933 8.26918 29.1839 8.52631 29.7882C8.78345 30.3923 7.64388 31.6743 7.64388 31.6743C7.64388 31.6743 6.93091 32.2729 8.51462 33.1312C10.0983 33.9896 9.15161 33.8145 9.15161 33.8145C7.98282 35.4409 9.85875 35.4409 9.85875 35.4409C9.85875 35.4409 10.4782 35.616 10.3029 37.0277C10.23 37.9863 10.4132 38.9468 10.8347 39.8174C13.5988 41.9519 23.2589 38.0046 25.4737 37.0616C26.2629 38.1394 26.7336 39.4043 26.8354 40.7209C26.9112 41.4608 26.8126 42.2077 26.547 42.9056C26.2814 43.6035 25.8557 44.2342 25.3018 44.7504C24.748 45.2666 24.0803 45.6549 23.349 45.8862C22.6176 46.1173 21.8416 46.1855 21.0791 46.0856H21.0382C20.0245 45.9334 19.0242 45.7069 18.0461 45.408C13.2925 43.9983 9.13144 41.1539 6.17298 37.292C3.21451 33.4301 1.61434 28.7539 1.60709 23.949L1.58955 23.9321Z" fill="#B0966B"/>
<path d="M64.4528 35.7975C64.3366 35.631 64.2773 35.4335 64.2833 35.2328C64.2833 34.8713 64.3827 34.668 64.5112 34.5834C64.7344 34.4926 64.9772 34.4558 65.2184 34.476C65.7828 34.517 66.3458 34.3824 66.8254 34.092C67.1561 33.8686 67.3893 33.5346 67.48 33.1546C67.582 32.673 67.6386 32.1835 67.6495 31.6921V17.3824C67.6403 16.8852 67.5835 16.3899 67.48 15.9028C67.382 15.5259 67.1504 15.1942 66.8254 14.9654C66.3505 14.6634 65.7853 14.5223 65.2184 14.5644H64.9963C64.8114 14.5829 64.6256 14.5389 64.4703 14.4402C64.3351 14.2562 64.2691 14.033 64.2833 13.8078C64.2766 13.6069 64.3358 13.4092 64.4528 13.243C64.5094 13.166 64.5851 13.104 64.6729 13.0626C64.7606 13.0212 64.8578 13.0016 64.9554 13.0059C66.58 13.0811 68.0644 13.1169 69.4085 13.1131H75.8368C77.4863 13.0896 79.1232 13.3933 80.6464 14.0054C81.7821 14.4532 82.7615 15.2056 83.469 16.1739C84.054 17.0071 84.3674 17.9906 84.369 18.9974C84.3471 20.3746 83.7632 21.6878 82.7443 22.651C81.5272 23.835 79.9903 24.6646 78.3088 25.0454L78.9458 26.0223C79.99 27.66 80.9366 29.0642 81.7859 30.2351C82.6224 31.3911 83.5483 32.4841 84.5559 33.5047C85.1907 34.033 85.9701 34.3723 86.8 34.4817H87.139C87.3027 34.4904 87.4561 34.5615 87.5656 34.6793C87.6956 34.8392 87.7564 35.0417 87.7351 35.2441C87.7411 35.4448 87.6818 35.6423 87.5656 35.8088C87.509 35.8857 87.4334 35.9478 87.3456 35.9892C87.2578 36.0307 87.1607 36.0501 87.063 36.0459L86.0871 36.0064C84.9943 35.9612 84.1936 35.9386 83.6969 35.9386C82.7745 35.7775 81.8992 35.4249 81.1314 34.9052C80.3193 34.3111 79.6076 33.5985 79.0217 32.7932C78.2972 31.8784 77.2861 30.3837 75.9888 28.3094L75.3167 27.2647C75.0428 26.8188 74.6744 26.4339 74.2356 26.1353C73.6819 25.8878 73.0739 25.7754 72.4648 25.8077H71.3545V31.6977C71.3653 32.1891 71.422 32.6786 71.524 33.1603C71.6119 33.5414 71.8458 33.8762 72.1785 34.0976C72.6581 34.388 73.2212 34.5226 73.7856 34.4817H74.0077C74.1866 34.4685 74.3652 34.5121 74.5161 34.6059C74.6272 34.6906 74.6914 34.8995 74.7206 35.2384C74.7266 35.4391 74.6674 35.6367 74.5511 35.8031C74.4946 35.8801 74.4189 35.9422 74.3311 35.9836C74.2433 36.025 74.1462 36.0445 74.0486 36.0403C72.4473 35.9668 70.8928 35.933 69.3734 35.933C68.0469 35.933 66.58 35.9668 64.9554 36.0403C64.8572 36.0439 64.7598 36.0235 64.6719 35.981C64.5841 35.9386 64.5087 35.8755 64.4528 35.7975ZM74.6447 24.396C78.3614 24.396 80.2198 22.7019 80.2198 19.3136C80.2338 18.67 80.1114 18.0303 79.8601 17.4341C79.6089 16.8378 79.2341 16.2974 78.7588 15.8463C77.7887 14.9033 76.1874 14.4346 73.9726 14.4346C73.4109 14.4072 72.8495 14.4937 72.3246 14.6887C72.1403 14.7712 71.9765 14.891 71.8444 15.04C71.7123 15.1892 71.615 15.364 71.559 15.5527C71.3963 16.1665 71.3274 16.8001 71.3545 17.4332V24.396H74.6447Z" fill="#B0966B"/>
<path d="M91.6796 35.2029C90.3944 34.4542 89.3613 33.3617 88.705 32.0575C88.0259 30.6889 87.682 29.1875 87.6999 27.6697C87.6987 26.2434 88.0514 24.8375 88.7285 23.5699C89.3928 22.2721 90.401 21.1673 91.6504 20.3681C92.9486 19.5427 94.4738 19.1155 96.0278 19.1427C98.2421 19.1427 99.9544 19.7074 101.153 20.786C102.386 21.962 103.12 23.5412 103.21 25.2132C103.248 25.5176 103.206 25.8264 103.087 26.1109C102.969 26.3954 102.778 26.6461 102.532 26.8396C101.942 27.1627 101.269 27.3137 100.592 27.2744H91.5102C91.5102 29.5107 91.9913 31.2876 92.9532 32.6053C93.9163 33.9229 95.4064 34.578 97.4243 34.5704C98.3828 34.5932 99.3284 34.3545 100.154 33.8815C101.028 33.2948 101.752 32.5221 102.269 31.6227C102.316 31.57 102.372 31.5268 102.437 31.4957C102.501 31.4647 102.572 31.4464 102.643 31.442C102.804 31.4396 102.961 31.4916 103.087 31.5888C103.206 31.6522 103.304 31.7468 103.371 31.8616C103.437 31.9765 103.468 32.107 103.461 32.2382C103.469 32.3497 103.444 32.461 103.391 32.5601C102.677 33.7229 101.672 34.6939 100.469 35.3836C99.2358 36.0538 97.8392 36.3895 96.4251 36.355C94.7637 36.4005 93.1217 36.0019 91.6796 35.2029ZM97.5938 25.8739C98.8598 25.8739 99.5321 25.3695 99.6099 24.3605C99.6423 23.3436 99.3126 22.3468 98.6746 21.537C98.3569 21.159 97.9504 20.8594 97.4892 20.6631C97.028 20.4666 96.5251 20.3791 96.0213 20.4076C95.4249 20.4003 94.8341 20.5265 94.2951 20.7763C93.757 21.0261 93.2857 21.3927 92.9189 21.8476C92.0265 23.0137 91.5414 24.4238 91.5335 25.8739H97.5938Z" fill="#B0966B"/>
<path d="M108.23 35.3456C107.67 35.0917 107.196 34.6885 106.864 34.1832C106.533 33.678 106.358 33.0919 106.36 32.4938C106.347 32.1837 106.399 31.8742 106.511 31.5835C106.624 31.2926 106.795 31.0263 107.014 30.7997C107.233 30.5844 107.496 30.4151 107.785 30.3024C108.074 30.1897 108.386 30.136 108.698 30.1447C109.08 30.1393 109.455 30.252 109.766 30.4665C110.077 30.6867 110.234 30.8562 110.234 30.9748C110.105 31.1432 109.96 31.3001 109.802 31.4435C109.651 31.6115 109.535 31.8067 109.462 32.0179C109.388 32.2292 109.359 32.4523 109.376 32.6745C109.376 33.0198 109.471 33.3587 109.652 33.6564C109.832 33.9542 110.092 34.2 110.403 34.3686C111.313 34.8442 112.34 35.067 113.373 35.0124C114.35 35.0686 115.32 34.8061 116.125 34.2669C116.454 34.0248 116.717 33.7092 116.892 33.3473C117.067 32.9854 117.149 32.5879 117.131 32.1888C117.145 31.6404 116.935 31.1087 116.545 30.7093C116.154 30.3115 115.674 30.0029 115.143 29.8058C114.559 29.5912 113.805 29.3371 112.806 29.0491C111.785 28.7785 110.785 28.4389 109.814 28.0326C109.046 27.6956 108.374 27.1841 107.856 26.5418C107.278 25.7771 106.987 24.8448 107.032 23.8989C107.011 22.9459 107.359 22.0196 108.008 21.3013C108.689 20.557 109.559 19.9966 110.532 19.6749C111.581 19.3035 112.688 19.1123 113.805 19.1102C115.143 19.0774 116.467 19.3893 117.639 20.0138C118.126 20.2474 118.537 20.6079 118.824 21.055C119.111 21.502 119.263 22.0175 119.263 22.5437C119.277 23.1576 119.051 23.7541 118.632 24.2152C118.431 24.44 118.18 24.6185 117.897 24.7377C117.615 24.8569 117.309 24.9138 117.002 24.9041C116.62 24.9074 116.247 24.7926 115.938 24.5766C115.622 24.362 115.47 24.1926 115.47 24.0683C115.554 23.9588 115.655 23.8618 115.768 23.7804C115.972 23.613 116.154 23.4235 116.312 23.2156C116.477 22.9749 116.56 22.6909 116.552 22.4025C116.531 22.0875 116.43 21.7827 116.254 21.5168C116.078 21.2509 115.834 21.0329 115.546 20.8834C114.887 20.5123 114.136 20.3211 113.373 20.33C112.497 20.3116 111.635 20.5307 110.883 20.9624C110.557 21.1331 110.287 21.3863 110.099 21.6948C109.912 22.0033 109.815 22.3554 109.819 22.7131C109.789 23.2821 109.946 23.8459 110.269 24.3225C110.618 24.755 111.083 25.0871 111.614 25.2825C112.198 25.5196 113.162 25.8472 114.46 26.2538C115.518 26.5641 116.555 26.9414 117.563 27.3832C118.261 27.7034 118.864 28.189 119.316 28.795C119.779 29.4857 120.008 30.2991 119.97 31.1215C119.976 32.0895 119.662 33.0337 119.071 33.8152C118.441 34.6478 117.588 35.2982 116.605 35.6957C115.496 36.1517 114.302 36.3787 113.097 36.362C111.412 36.4304 109.736 36.0804 108.23 35.3456Z" fill="#B0966B"/>
<path d="M126.445 35.2384C125.985 34.7316 125.632 34.1421 125.408 33.5036C125.183 32.865 125.091 32.1899 125.137 31.517V20.8948L122.968 20.9682C122.894 20.9677 122.82 20.9494 122.756 20.915C122.69 20.8804 122.634 20.8309 122.594 20.7705C122.494 20.6397 122.442 20.4812 122.443 20.3188C122.435 20.1225 122.481 19.9279 122.577 19.7541C122.612 19.6803 122.667 19.6165 122.735 19.569C122.804 19.5215 122.884 19.4919 122.968 19.483C123.704 19.3685 124.402 19.0902 125.008 18.6698C125.454 18.3426 125.817 17.9216 126.071 17.4388C126.384 16.7723 126.659 16.0899 126.895 15.3946C126.96 15.2395 127.076 15.1094 127.225 15.0246C127.374 14.9398 127.547 14.9051 127.719 14.9258C127.901 14.9295 128.079 14.974 128.239 15.0558C128.318 15.0855 128.385 15.1377 128.432 15.2053C128.479 15.2729 128.504 15.3527 128.502 15.4341L128.239 19.5508L132.617 19.3023H132.693C133.014 19.3023 133.178 19.5282 133.178 19.9857C133.182 20.2377 133.137 20.4883 133.049 20.7254C132.961 20.9569 132.856 21.0699 132.728 21.0699L128.567 20.9626V31.9518C128.541 32.6473 128.717 33.3357 129.075 33.9396C129.251 34.206 129.499 34.4205 129.793 34.56C130.087 34.6993 130.414 34.7582 130.74 34.7302C131.448 34.7435 132.15 34.6086 132.798 34.3349C132.984 34.2532 133.181 34.1925 133.382 34.1542C133.462 34.1516 133.541 34.1683 133.612 34.2027C133.684 34.2373 133.745 34.2886 133.791 34.3518C133.909 34.517 134.011 34.6928 134.095 34.8769C134.12 34.9341 134.132 34.9957 134.13 35.0577C134.13 35.1537 134.054 35.261 133.908 35.3852C133.284 35.7971 132.595 36.108 131.868 36.3057C131.127 36.473 130.368 36.5508 129.607 36.5372C129.015 36.5471 128.428 36.4366 127.883 36.2128C127.339 35.989 126.849 35.657 126.445 35.2384Z" fill="#B0966B"/>
<path d="M138.958 35.2029C137.67 34.4559 136.637 33.3629 135.983 32.0575C135.31 30.6874 134.972 29.1861 134.995 27.6697C134.997 26.2436 135.35 24.8384 136.024 23.5699C136.69 22.2737 137.698 21.1696 138.945 20.3681C140.241 19.5428 141.765 19.1155 143.317 19.1427C145.537 19.1427 147.246 19.6904 148.442 20.786C149.677 21.9606 150.411 23.5406 150.499 25.2132C150.538 25.5172 150.498 25.8256 150.38 26.11C150.262 26.3945 150.072 26.6454 149.827 26.8396C149.235 27.1638 148.559 27.3148 147.881 27.2744H138.788C138.788 29.5107 139.267 31.2876 140.225 32.6053C141.184 33.9229 142.674 34.578 144.696 34.5704C145.655 34.5938 146.601 34.355 147.425 33.8815C148.307 33.2983 149.038 32.525 149.558 31.6227C149.656 31.5199 149.789 31.4556 149.933 31.442C150.096 31.4384 150.255 31.4903 150.382 31.5888C150.501 31.6522 150.599 31.7468 150.666 31.8616C150.732 31.9765 150.763 32.107 150.756 32.2382C150.764 32.3504 150.738 32.4625 150.68 32.56C149.967 33.7234 148.962 34.6944 147.758 35.3836C146.535 36.0578 145.146 36.4011 143.738 36.3775C142.062 36.4226 140.407 36.0158 138.958 35.2029ZM144.883 25.8739C146.157 25.8739 146.831 25.3695 146.905 24.3605C146.935 23.344 146.605 22.348 145.97 21.537C145.651 21.1582 145.244 20.8581 144.782 20.6617C144.32 20.4653 143.815 20.3782 143.311 20.4076C142.706 20.3976 142.107 20.5248 141.563 20.7788C141.017 21.0328 140.541 21.4065 140.173 21.8702C139.281 23.0363 138.795 24.4464 138.788 25.8965L144.883 25.8739Z" fill="#B0966B"/>
<path d="M157.15 35.2379C156.689 34.7311 156.336 34.1416 156.111 33.503C155.887 32.8645 155.795 32.1895 155.84 31.5165V20.8943L153.672 20.9678C153.598 20.9668 153.525 20.9482 153.46 20.9138C153.395 20.8793 153.34 20.83 153.298 20.7701C153.201 20.6387 153.149 20.4802 153.153 20.3184C153.143 20.1225 153.188 19.9279 153.28 19.7536C153.316 19.6801 153.372 19.6166 153.441 19.5692C153.509 19.5217 153.589 19.492 153.672 19.4826C154.409 19.3703 155.108 19.0917 155.712 18.6694C156.159 18.342 156.522 17.9211 156.775 17.4383C157.093 16.774 157.369 16.0913 157.6 15.3941C157.664 15.2395 157.781 15.11 157.929 15.0254C158.078 14.9407 158.252 14.9056 158.424 14.9254C158.607 14.9282 158.787 14.9727 158.95 15.0552C159.026 15.0866 159.092 15.1393 159.138 15.2066C159.183 15.274 159.207 15.353 159.206 15.4336L158.955 19.5503L163.327 19.3019H163.402C163.729 19.3019 163.888 19.5278 163.888 19.9851C163.891 20.2372 163.848 20.4878 163.759 20.725C163.671 20.9565 163.566 21.0694 163.443 21.0694L159.254 20.9621V31.9513C159.229 32.6459 159.403 33.3337 159.756 33.939C159.933 34.2045 160.182 34.4184 160.475 34.5578C160.769 34.6971 161.096 34.7565 161.422 34.7297C162.128 34.7435 162.83 34.6086 163.478 34.3344C163.665 34.2535 163.862 34.1929 164.063 34.1536C164.143 34.1511 164.224 34.1678 164.296 34.2023C164.368 34.2367 164.43 34.2879 164.478 34.3513C164.594 34.5167 164.694 34.6926 164.776 34.8765C164.801 34.9335 164.813 34.9952 164.811 35.0572C164.811 35.1532 164.741 35.2605 164.589 35.3847C163.966 35.7967 163.277 36.1076 162.55 36.3052C161.808 36.4726 161.048 36.5503 160.288 36.5367C159.7 36.5431 159.117 36.4309 158.577 36.2072C158.037 35.9836 157.551 35.6534 157.15 35.2379Z" fill="#B0966B"/>
<path d="M167.791 35.8136C167.678 35.669 167.619 35.4921 167.622 35.311C167.65 34.9948 167.721 34.8084 167.85 34.7463C168.064 34.6709 168.293 34.6402 168.522 34.6559C169.008 34.6964 169.494 34.5813 169.906 34.3284C170.033 34.239 170.14 34.126 170.22 33.9959C170.3 33.866 170.353 33.7216 170.374 33.5717C170.419 33.1137 170.439 32.6538 170.432 32.1938V23.9265C170.439 23.4684 170.419 23.0103 170.374 22.5543C170.354 22.4033 170.301 22.2579 170.221 22.1269C170.141 21.9959 170.033 21.882 169.906 21.7919C169.493 21.5413 169.007 21.4283 168.522 21.4701C168.289 21.4833 168.058 21.4386 167.85 21.3401C167.698 21.2536 167.622 21.0653 167.622 20.7754C167.625 20.624 167.678 20.4777 167.774 20.3575C167.828 20.2905 167.896 20.235 167.974 20.1942C168.051 20.1534 168.136 20.1283 168.224 20.1204C169.601 19.9524 170.956 19.638 172.261 19.183C172.539 19.0812 172.827 19.0092 173.121 18.9684H173.238C173.635 18.9684 173.822 19.1943 173.822 19.6517V32.1881C173.811 32.6486 173.836 33.1093 173.898 33.5661C173.954 33.8688 174.127 34.1393 174.383 34.3227C174.795 34.5757 175.281 34.6908 175.769 34.6503H175.99C176.148 34.6387 176.306 34.6763 176.44 34.7576C176.508 34.8352 176.559 34.925 176.592 35.0219C176.624 35.1188 176.636 35.2209 176.627 35.3223C176.631 35.5008 176.578 35.6763 176.475 35.8249C176.428 35.8966 176.362 35.9549 176.284 35.9936C176.207 36.0323 176.119 36.0501 176.031 36.0451C174.582 35.9698 173.273 35.934 172.104 35.9378C170.935 35.9416 169.638 35.9773 168.212 36.0451C168.127 36.0429 168.045 36.0206 167.972 35.9802C167.898 35.9398 167.837 35.8826 167.791 35.8136Z" fill="#B0966B"/>
<path d="M180.905 34.0074C179.455 32.445 178.731 30.35 178.731 27.7223C178.756 26.1776 179.19 24.6649 179.993 23.3289C180.75 22.0651 181.842 21.0186 183.155 20.2963C184.487 19.5569 185.99 19.153 187.526 19.1217C188.962 19.0838 190.388 19.3801 191.681 19.9857C192.237 20.2448 192.701 20.6583 193.013 21.1732C193.326 21.6882 193.473 22.2813 193.435 22.877C193.436 23.5962 193.178 24.2933 192.704 24.8479C192.487 25.1211 192.206 25.3404 191.883 25.4877C191.561 25.635 191.207 25.706 190.852 25.6949C190.415 25.7073 189.989 25.5802 189.636 25.3335C189.297 25.0963 189.133 24.893 189.133 24.7236C189.133 24.6954 189.244 24.5881 189.466 24.3961C189.703 24.198 189.912 23.97 190.086 23.7184C190.276 23.4345 190.373 23.1021 190.366 22.7641C190.385 22.4361 190.318 22.1087 190.171 21.8125C190.024 21.5164 189.802 21.2609 189.525 21.07C188.924 20.6793 188.21 20.4817 187.485 20.5053C185.561 20.5053 184.257 21.1867 183.575 22.5495C182.838 24.1583 182.487 25.9072 182.547 27.6657C182.471 29.4303 182.967 31.1737 183.967 32.6521C184.374 33.2605 184.935 33.7587 185.596 34.0996C186.258 34.4404 186.998 34.6128 187.748 34.6004C188.721 34.6161 189.678 34.3676 190.513 33.8832C191.355 33.3612 192.063 32.6625 192.587 31.839C192.626 31.7786 192.682 31.73 192.747 31.6981C192.814 31.6662 192.887 31.6525 192.961 31.6583C193.107 31.6641 193.248 31.7029 193.376 31.7712C193.502 31.8182 193.607 31.9061 193.673 32.0196C193.745 32.1281 193.783 32.2531 193.785 32.3811C193.774 32.4865 193.736 32.5876 193.673 32.6748C192.874 33.7834 191.826 34.7025 190.606 35.3628C189.484 36.0009 188.209 36.3435 186.907 36.3566C184.347 36.3566 182.347 35.5736 180.905 34.0074Z" fill="#B0966B"/>
<path d="M197.619 35.1298C197.172 34.7445 196.818 34.2704 196.58 33.74C196.342 33.2097 196.226 32.6358 196.24 32.0578C196.192 31.408 196.31 30.7571 196.583 30.1615C196.856 29.566 197.276 29.0441 197.806 28.6413C198.91 27.8616 200.193 27.3538 201.546 27.1617C203.405 26.8907 205.277 26.7153 207.156 26.6366V23.7791C207.228 22.8007 206.901 21.8339 206.244 21.0855C205.631 20.4756 204.655 20.1651 203.322 20.1651C202.586 20.1536 201.871 20.3981 201.306 20.854C201.025 21.0754 200.801 21.357 200.652 21.6765C200.502 21.996 200.433 22.3447 200.447 22.6949C200.433 23.0356 200.531 23.3717 200.727 23.6549C200.892 23.8902 201.089 24.1029 201.312 24.2874C201.431 24.368 201.538 24.4651 201.628 24.5754C201.628 24.7223 201.47 24.9086 201.16 25.1401C200.831 25.3765 200.43 25.4979 200.021 25.4845C199.684 25.4936 199.35 25.4263 199.046 25.288C198.741 25.1497 198.474 24.9443 198.267 24.6883C197.829 24.1546 197.597 23.4893 197.613 22.8078C197.592 22.2297 197.746 21.6582 198.058 21.1643C198.37 20.6704 198.824 20.2758 199.366 20.0295C200.669 19.3946 202.115 19.084 203.573 19.126C205.313 19.0585 207.038 19.4488 208.564 20.2554C209.85 21.0008 210.493 22.3899 210.493 24.4116V32.8145C210.52 33.3293 210.687 33.8281 210.978 34.2602C211.134 34.4905 211.352 34.676 211.608 34.7972C211.864 34.9184 212.149 34.9709 212.433 34.9491C212.586 34.9352 212.739 34.9731 212.866 35.0563C212.918 35.1224 212.956 35.1979 212.978 35.2784C213 35.3588 213.006 35.4426 212.994 35.5251C212.994 35.8131 212.766 36.0276 212.305 36.1576C211.861 36.2885 211.401 36.3552 210.937 36.3552C210.023 36.3811 209.126 36.1064 208.395 35.5759C208.044 35.3256 207.751 35.0057 207.537 34.6376C207.324 34.2696 207.193 33.8617 207.156 33.4413C206.608 34.3818 205.765 35.1294 204.749 35.5759C203.655 36.084 202.456 36.3429 201.241 36.3326C199.919 36.3964 198.622 35.9657 197.619 35.1298ZM204.8 33.7914C205.522 33.3855 206.117 32.8005 206.525 32.0973C206.949 31.3769 207.168 30.5601 207.156 29.7312V27.67C204.538 27.8677 202.697 28.2743 201.622 28.9011C201.091 29.2163 200.661 29.6665 200.377 30.2023C200.094 30.7382 199.968 31.339 200.014 31.9391C200.014 33.5768 200.825 34.3956 202.445 34.3956C203.273 34.4048 204.087 34.1959 204.8 33.7914Z" fill="#B0966B"/>
<path d="M173.875 12.0397L173.922 12.0679L173.974 12.1075L174.027 12.1527L174.079 12.2035C174.351 12.4552 174.536 12.7807 174.611 13.1368C174.687 13.4929 174.648 13.8626 174.5 14.1969C174.457 14.2883 174.408 14.3769 174.354 14.4623C174.296 14.543 174.234 14.6203 174.167 14.6939C173.737 15.2153 173.163 15.6089 172.511 15.8295C171.86 16.05 171.157 16.0884 170.483 15.9404C169.81 15.7923 169.194 15.4639 168.705 14.9926C168.217 14.5214 167.875 13.9266 167.721 13.2764C167.692 13.1466 167.675 13.0223 167.657 12.898C167.601 12.4449 167.643 11.9854 167.779 11.5484C167.814 11.4467 167.938 11.4072 167.938 11.5823C167.937 11.822 167.988 12.0592 168.089 12.2782C168.189 12.4972 168.337 12.6931 168.522 12.8529L168.58 12.9037L168.639 12.9489C168.657 12.959 168.673 12.9724 168.686 12.9885L168.732 13.0167C169.143 13.2653 169.638 13.3501 170.112 13.2532C170.586 13.1563 171.003 12.8852 171.274 12.4971C171.398 12.2924 171.565 12.1151 171.764 11.9765C171.963 11.838 172.19 11.7415 172.43 11.693C172.67 11.6445 172.918 11.6453 173.158 11.6953C173.398 11.7454 173.624 11.8435 173.822 11.9833L173.875 12.0397Z" fill="#B0966B"/>
</g>
</svg>
