<svg width="129" height="98" viewBox="0 0 129 98" fill="none" xmlns="http://www.w3.org/2000/svg">
<g id="&#208;&#155;&#208;&#190;&#208;&#179;&#208;&#190;&#209;&#130;&#208;&#184;&#208;&#191;">
<g id="Vector">
<path d="M56.7163 1.14583C51.7597 2.72872 47.4452 5.77988 44.3856 9.86604C41.326 13.9522 39.6768 18.8656 39.6721 23.9086C39.6721 27.373 40.4487 30.7963 41.9484 33.9433C42.9052 35.9475 44.1438 37.8147 45.629 39.492C48.6195 42.8649 52.5185 45.3719 56.8941 46.7351C58.0192 47.0796 59.1673 47.3479 60.3311 47.5383C61.7013 47.7861 63.0894 47.9269 64.4832 47.9595C67.3453 47.9674 70.1861 47.4917 72.8788 46.5539C75.4919 45.644 77.93 44.32 80.0927 42.636C80.7832 42.094 81.4444 41.5186 82.0749 40.9122C85.4255 37.6727 87.7436 33.5726 88.7531 29.0984C89.7632 24.6243 89.4234 19.9642 87.7733 15.6713C86.9785 13.5919 85.8865 11.6303 84.5287 9.8435C82.486 7.13827 79.8785 4.87733 76.8745 3.20699C73.8699 1.53665 70.5366 0.494096 67.089 0.146768C65.6969 0.00181958 64.2947 -0.0358456 62.8965 0.0341294C60.7971 0.161089 58.7219 0.534399 56.7163 1.14583ZM76.2547 43.3266C77.842 40.9748 78.6221 38.2001 78.4847 35.3959C78.3473 32.5916 77.2996 29.9005 75.4897 27.7041C74.0634 25.9428 72.2181 24.5401 70.1104 23.6148C69.0459 23.1535 67.9252 22.8244 66.7749 22.6353C65.431 22.4149 64.0726 22.5129 62.7187 22.3366C61.3804 22.1809 60.0871 21.7716 58.9126 21.1321C57.7382 20.4925 56.7056 19.6354 55.8748 18.6097C54.1718 16.4122 53.4077 13.6667 53.7404 10.9405C53.8382 11.197 53.9144 11.4607 53.9686 11.729C54.6947 13.9741 56.1487 15.9343 58.1156 17.3205C60.0826 18.7066 62.459 19.4453 64.8937 19.4276C69.4009 19.3492 76.1229 15.6713 74.9165 10.4655C74.7308 9.65921 74.3646 8.90205 73.8435 8.24719C73.3219 7.59233 72.659 7.05567 71.9001 6.67494C69.1373 5.28897 66.2477 6.31251 64.7165 8.57995C64.0984 9.47709 63.215 10.1734 62.1814 10.5781C61.3838 10.8987 60.5223 11.0423 59.6597 10.9982C58.7971 10.9541 57.9558 10.7235 57.198 10.3234C56.5401 9.9837 55.9675 9.50894 55.5199 8.93259V8.89829C55.21 8.47945 55.0362 7.9809 55.0209 7.46629C55.0055 6.95163 55.1493 6.44426 55.4338 6.00887C56.4431 4.53129 57.8677 3.36243 59.5402 2.63951C62.0748 1.47884 64.6453 1.3858 67.3526 1.72371C72.7885 2.39418 77.81 4.88031 81.5476 8.7514C85.6218 13.0037 87.8333 18.6146 87.7194 24.4076C87.605 30.2005 85.1731 35.7258 80.934 39.825C80.344 40.395 79.7231 40.9344 79.0736 41.4411C78.183 42.1353 77.2407 42.7654 76.2547 43.3266ZM41.2741 23.9086C41.2761 20.7656 41.9639 17.6583 43.2925 14.7893C44.6212 11.9203 46.5608 9.35394 48.9851 7.25772C48.3019 8.95388 48.171 10.8111 48.61 12.5811C48.61 12.6839 48.6555 12.7427 48.6555 12.7427C47.591 17.454 48.1486 19.0015 48.1486 19.0015L49.122 21.3081C48.468 23.5952 45.629 26.3328 45.2741 27.3613C44.9192 28.3897 47.9357 29.1635 48.1993 29.761C48.4629 30.3584 47.3121 31.6464 47.3121 31.6464C47.3121 31.6464 46.6024 32.2439 48.1892 33.1156C49.776 33.9874 48.8229 33.7915 48.8229 33.7915C47.667 35.4174 49.5326 35.4174 49.5326 35.4174C49.5326 35.4174 50.1511 35.5888 49.9737 37.0041C49.9003 37.9601 50.0836 38.9183 50.506 39.7858C53.269 41.921 62.9167 37.9787 65.1321 37.0335C65.9212 38.1106 66.3913 39.3756 66.4905 40.6918C66.5758 41.4339 66.4838 42.1848 66.2224 42.8873C65.9605 43.5898 65.5365 44.2252 64.9818 44.7451C64.4271 45.2648 63.7563 45.6553 63.0215 45.8864C62.2868 46.1176 61.5072 46.1834 60.7416 46.0789H60.676C59.6636 45.9297 58.6653 45.7037 57.6899 45.4031C55.7385 44.8276 53.8752 44.0042 52.1486 42.9544C48.8102 40.9329 46.0595 38.124 44.1552 34.792C42.251 31.46 41.256 27.7147 41.264 23.9086H41.2741Z" fill="#D2B88F"/>
<path d="M0.148671 82.6129C0.0484633 82.4681 -0.00289766 82.2971 0.00164962 82.1235C0.00164962 81.8099 0.0878344 81.6335 0.194298 81.5551C0.390592 81.4794 0.602009 81.4478 0.812801 81.462C1.30176 81.4979 1.7899 81.383 2.20697 81.1342C2.49419 80.9382 2.69641 80.6469 2.77477 80.3159C2.86288 79.8967 2.91209 79.4704 2.92179 79.043V66.6427C2.91417 66.2115 2.86494 65.782 2.77477 65.3595C2.68853 65.0323 2.48799 64.7432 2.20697 64.5417C1.79388 64.2826 1.3039 64.1622 0.812801 64.1987H0.620153C0.459123 64.214 0.297751 64.1742 0.16388 64.0866C0.0465521 63.9265 -0.0106977 63.7332 0.00164962 63.5378C-0.00289766 63.3641 0.0484633 63.1926 0.148671 63.0483C0.198319 62.9824 0.264192 62.9296 0.340323 62.8942C0.416454 62.8594 0.500437 62.843 0.584662 62.8474C1.99404 62.9062 3.27667 62.9405 4.44777 62.9405H10.0244C11.4558 62.9149 12.8768 63.1784 14.1968 63.7142C15.182 64.1023 16.0317 64.7551 16.6454 65.5947C17.1535 66.3172 17.4255 67.1703 17.4262 68.0436C17.4073 69.2375 16.8986 70.3754 16.0118 71.2068C14.9591 72.2363 13.6271 72.9577 12.1689 73.2882L12.7215 74.1359C13.6273 75.5558 14.4486 76.7721 15.1854 77.7842C15.911 78.7866 16.7143 79.7344 17.5884 80.6197C18.1377 81.0798 18.8145 81.3743 19.5352 81.4669H19.8242C19.8956 81.4712 19.9656 81.4886 20.03 81.5191C20.0944 81.5491 20.1519 81.5915 20.1993 81.6433C20.3122 81.7821 20.3648 81.9574 20.3463 82.1333C20.3509 82.3069 20.2995 82.4779 20.1993 82.6227C20.1496 82.6886 20.0838 82.7414 20.0077 82.7768C19.9315 82.8116 19.8475 82.828 19.7633 82.8236L18.9167 82.7648C17.9636 82.7207 17.2741 82.7011 16.8432 82.7011C16.044 82.5606 15.2851 82.2569 14.6176 81.8099C13.913 81.2926 13.2956 80.6731 12.7874 79.9734C12.1588 79.1802 11.2817 77.8855 10.1562 76.0899L9.5732 75.1785C9.33618 74.7903 9.01441 74.456 8.63027 74.1991C8.14977 73.9933 7.62317 73.9072 7.09921 73.9497H6.13597V79.0577C6.14438 79.4851 6.19189 79.9114 6.27793 80.3306C6.35959 80.6589 6.56122 80.9474 6.84575 81.144C7.26466 81.3928 7.75441 81.5077 8.24495 81.4718H8.43761C8.59185 81.462 8.74513 81.5017 8.87363 81.5845C8.97498 81.658 9.03079 81.8393 9.05614 82.1333C9.06068 82.3069 9.0093 82.4779 8.90908 82.6227C8.85899 82.6891 8.7923 82.7425 8.71518 82.7779C8.63812 82.8127 8.55309 82.8285 8.46806 82.8236C7.08401 82.7648 5.73545 82.7305 4.41228 82.7305C3.26653 82.7305 1.99404 82.7648 0.584662 82.8236C0.499528 82.8269 0.414951 82.8089 0.338748 82.7724C0.262544 82.7354 0.197173 82.6804 0.148671 82.6129ZM8.99023 72.7253C12.2146 72.7253 13.825 71.2558 13.8216 68.3174C13.8349 67.7588 13.7297 67.2035 13.5126 66.6857C13.2955 66.168 12.9711 65.6981 12.5593 65.3056C11.7143 64.4927 10.3303 64.0866 8.40721 64.0866C7.92043 64.0637 7.43405 64.1372 6.97755 64.3016C6.81709 64.374 6.67468 64.4786 6.56004 64.6087C6.4454 64.7388 6.36127 64.8912 6.31343 65.0562C6.17186 65.5881 6.11208 66.1375 6.13597 66.6868V72.7253H8.99023Z" fill="#333132"/>
<path d="M23.7684 82.0941C22.651 81.4473 21.754 80.4994 21.1879 79.3659C20.5942 78.1752 20.294 76.8679 20.3108 75.546C20.3137 74.3096 20.6194 73.0911 21.2031 71.9908C21.7832 70.8687 22.6571 69.9132 23.738 69.219C24.8632 68.5009 26.1869 68.1285 27.5352 68.1514C29.4565 68.1514 30.942 68.6408 31.9762 69.5762C33.0482 70.5948 33.6851 71.9652 33.7607 73.4156C33.7948 73.6791 33.7592 73.947 33.6572 74.1936C33.5552 74.4403 33.3903 74.658 33.1777 74.8263C32.6654 75.1088 32.0783 75.24 31.4895 75.2036H23.6214C23.6214 77.1625 24.0388 78.7033 24.8736 79.8264C25.7083 80.9496 26.9994 81.5191 28.7468 81.5355C29.5781 81.5621 30.4004 81.3618 31.1194 80.9578C31.8821 80.4504 32.5136 79.7802 32.9648 78.9989C33.0051 78.9526 33.0546 78.9151 33.1104 78.8884C33.1662 78.8612 33.227 78.8454 33.2892 78.8421C33.4302 78.8377 33.5683 78.8807 33.6796 78.9646C33.7826 79.0201 33.8675 79.1018 33.9248 79.2014C33.9821 79.3011 34.0096 79.4138 34.0041 79.5275C34.0124 79.6266 33.9894 79.7257 33.9382 79.8118C33.3194 80.8206 32.4477 81.6629 31.4033 82.2601C30.3295 82.8394 29.1143 83.1285 27.885 83.098C26.4429 83.1383 25.0177 82.7904 23.7684 82.0941ZM28.8989 74.0085C30.0041 74.0085 30.5888 73.5692 30.653 72.691C30.6815 71.809 30.3951 70.9444 29.8418 70.2421C29.5693 69.9094 29.218 69.6442 28.8175 69.47C28.417 69.2953 27.979 69.2158 27.5402 69.2381C27.0186 69.2365 26.5036 69.3513 26.0357 69.574C25.5677 69.7967 25.1595 70.1206 24.8431 70.5214C24.0685 71.534 23.6477 72.759 23.6416 74.0183L28.8989 74.0085Z" fill="#333132"/>
<path d="M38.1257 82.2215C37.6391 82.0004 37.228 81.6498 36.9406 81.211C36.6532 80.7716 36.5015 80.2626 36.5034 79.7431C36.4917 79.4742 36.536 79.2058 36.6335 78.9532C36.731 78.7011 36.8799 78.4702 37.0712 78.2742C37.2617 78.0886 37.4895 77.9421 37.7405 77.8447C37.9916 77.7467 38.2607 77.6999 38.5313 77.7058C38.8644 77.6999 39.1903 77.8 39.459 77.99C39.7277 78.1762 39.8646 78.3232 39.8646 78.4261C39.7535 78.5742 39.6279 78.712 39.4894 78.8372C39.2237 79.1296 39.0887 79.5118 39.1143 79.8999C39.1145 80.1994 39.1972 80.4934 39.354 80.7515C39.5109 81.0101 39.7361 81.2229 40.0065 81.3694C40.795 81.7875 41.6889 81.9841 42.5871 81.9373C43.4397 81.9884 44.2855 81.7625 44.99 81.2959C45.2725 81.0841 45.4979 80.8097 45.647 80.4961C45.7962 80.1825 45.8647 79.8384 45.8468 79.4938C45.8538 79.2581 45.8126 79.0234 45.7256 78.8034C45.6386 78.5829 45.5076 78.3815 45.3399 78.2105C45.0008 77.8637 44.5848 77.5959 44.1232 77.4271C43.6162 77.236 42.9622 77.0155 42.0953 76.7656C41.2257 76.5375 40.3736 76.2511 39.5452 75.9086C38.8699 75.6114 38.28 75.1589 37.8266 74.5911C37.3246 73.9301 37.0723 73.1233 37.1118 72.3044C37.0832 71.4747 37.376 70.664 37.9331 70.0319C38.5243 69.3867 39.279 68.9005 40.1232 68.6212C41.0325 68.2989 41.9934 68.1329 42.9622 68.1318C44.1229 68.1057 45.2701 68.3757 46.2879 68.9152C46.7111 69.1178 47.0673 69.4308 47.3163 69.8185C47.5653 70.2061 47.6972 70.6531 47.6973 71.1093C47.7177 71.6473 47.5256 72.1726 47.1599 72.5788C46.9862 72.7732 46.7693 72.9278 46.5253 73.0301C46.2813 73.133 46.0164 73.181 45.7505 73.1712C45.4199 73.1755 45.0966 73.0781 44.8278 72.8919C44.5541 72.7008 44.4223 72.5543 44.4223 72.4514C44.4954 72.3561 44.5825 72.2723 44.6808 72.2015C44.8598 72.048 45.0182 71.8737 45.1523 71.6821C45.2939 71.473 45.3664 71.227 45.3602 70.9771C45.3425 70.7032 45.2526 70.4386 45.0991 70.2083C44.9456 69.9774 44.7335 69.7885 44.4831 69.6595C43.9052 69.329 43.2435 69.1591 42.5718 69.17C41.8132 69.1553 41.0654 69.3453 40.4121 69.7183C40.1298 69.8675 39.8948 70.088 39.7323 70.3564C39.5697 70.6248 39.4858 70.9308 39.4894 71.2417C39.4617 71.7349 39.5986 72.2244 39.8798 72.6371C40.1875 73.0138 40.5987 73.2986 41.0661 73.4603C41.5731 73.6704 42.4096 73.9497 43.53 74.3074C44.4505 74.5758 45.3515 74.903 46.2271 75.2869C46.8325 75.5629 47.3557 75.9821 47.748 76.5064C48.1512 77.1064 48.3497 77.8136 48.3158 78.529C48.3213 79.368 48.0476 80.1869 47.535 80.8647C46.9894 81.5866 46.2495 82.1507 45.3957 82.4959C44.4336 82.8879 43.3981 83.085 42.3538 83.0735C40.8924 83.141 39.4374 82.8476 38.1257 82.2215Z" fill="#333132"/>
<path d="M53.9281 82.1278C53.1676 81.3737 52.7924 80.2963 52.7924 78.896V69.684L50.9116 69.7477C50.8465 69.7471 50.7826 69.7308 50.7258 69.6998C50.6691 69.6687 50.6213 69.6246 50.5871 69.5713C50.5001 69.458 50.4538 69.3203 50.4553 69.1793C50.4494 69.01 50.4878 68.8412 50.5668 68.6898C50.5993 68.6256 50.648 68.5706 50.7082 68.5298C50.7685 68.4889 50.8383 68.4628 50.9116 68.4546C51.5487 68.3566 52.1531 68.1149 52.6758 67.7496C53.0643 67.4676 53.3814 67.1039 53.6036 66.6868C53.874 66.1081 54.1127 65.5168 54.3184 64.9141C54.3741 64.7802 54.4738 64.668 54.6021 64.5945C54.7303 64.521 54.8801 64.4905 55.0281 64.5074C55.1869 64.5085 55.3432 64.545 55.4844 64.6152C55.552 64.6413 55.6099 64.6871 55.6505 64.7453C55.6912 64.8041 55.7128 64.8727 55.7126 64.943L55.4844 68.5183L59.2817 68.2978H59.3473C59.6266 68.2978 59.7685 68.4987 59.7685 68.8956C59.7691 69.114 59.7298 69.3317 59.6518 69.537C59.5756 69.7379 59.4841 69.8359 59.3781 69.8359L55.743 69.7428V79.2678C55.72 79.8711 55.8728 80.4683 56.184 80.9916C56.336 81.2229 56.5502 81.4097 56.8043 81.5311C57.0578 81.6531 57.3416 81.7053 57.6237 81.6825C58.2373 81.695 58.8464 81.5779 59.4084 81.3395C59.57 81.267 59.7405 81.2142 59.9154 81.1826C59.985 81.1794 60.054 81.1935 60.1157 81.2235C60.1779 81.254 60.2312 81.2986 60.2705 81.3541C60.3737 81.4962 60.4601 81.6492 60.529 81.8099C60.5554 81.8578 60.5672 81.9122 60.5644 81.9661C60.5644 82.051 60.4982 82.1441 60.3664 82.2454C59.8285 82.6048 59.2323 82.8743 58.6025 83.0436C57.958 83.1911 57.2973 83.2603 56.6355 83.2494C56.1285 83.2537 55.6259 83.1563 55.1599 82.963C54.6939 82.7697 54.2744 82.4855 53.9281 82.1278Z" fill="#333132"/>
<path d="M64.7821 82.0941C63.6649 81.4473 62.768 80.4994 62.2016 79.3658C61.6082 78.1751 61.3081 76.8679 61.3249 75.546C61.3266 74.308 61.6323 73.0879 62.2167 71.9859C62.7966 70.8638 63.6705 69.9078 64.7518 69.2141C65.8775 68.4971 67.2011 68.1252 68.5489 68.1465C70.4755 68.1465 71.9573 68.6212 72.9949 69.5713C74.0651 70.591 74.7017 71.9609 74.7796 73.4107C74.8138 73.6742 74.7779 73.9421 74.6764 74.1887C74.5743 74.4354 74.4094 74.6531 74.1969 74.8214C73.6842 75.1039 73.097 75.2351 72.5087 75.1987H64.6352C64.6352 77.1576 65.0508 78.6983 65.8825 79.8215C66.7138 80.9447 68.0066 81.5142 69.7604 81.5306C70.5905 81.5561 71.4105 81.3563 72.1284 80.9529C72.8929 80.446 73.5261 79.7758 73.9787 78.994C74.0185 78.9477 74.0684 78.9101 74.124 78.8829C74.1801 78.8562 74.2406 78.8404 74.3029 78.8372C74.4442 78.8328 74.5822 78.8758 74.6932 78.9597C74.7964 79.0152 74.8811 79.0969 74.9389 79.1965C74.9961 79.2962 75.0236 79.4088 75.018 79.5226C75.0264 79.6217 75.0034 79.7208 74.9518 79.8068C74.3315 80.8146 73.4604 81.6563 72.4172 82.2558C71.3549 82.8378 70.1508 83.1356 68.9292 83.1176C67.4749 83.1573 66.0385 82.8029 64.7821 82.0941ZM69.923 74.0085C71.028 74.0085 71.6129 73.5691 71.6769 72.691C71.7032 71.8095 71.4166 70.9455 70.8659 70.2426C70.5922 69.9094 70.2399 69.6442 69.8389 69.47C69.4373 69.2952 68.9987 69.2158 68.559 69.2386C68.0346 69.2299 67.5152 69.3404 67.0424 69.5609C66.5696 69.7809 66.1568 70.1048 65.8366 70.5066C65.062 71.5193 64.6413 72.7443 64.6352 74.0036L69.923 74.0085Z" fill="#333132"/>
<path d="M80.5639 82.1278C79.7568 81.2387 79.3484 80.0758 79.4286 78.896V69.684L77.5475 69.7477C77.4824 69.7466 77.4191 69.7297 77.3624 69.6992C77.3058 69.6682 77.2575 69.6246 77.2233 69.5713C77.1375 69.4575 77.0932 69.3198 77.0966 69.1793C77.0904 69.01 77.1291 68.8412 77.2082 68.6898C77.2396 68.6261 77.2867 68.5711 77.3461 68.5298C77.4056 68.4884 77.4751 68.4628 77.5475 68.4546C78.1863 68.3561 78.7921 68.1149 79.317 67.7496C79.704 67.4676 80.0192 67.1039 80.2397 66.6868C80.5145 66.1103 80.7534 65.5184 80.9542 64.9141C81.0103 64.7796 81.1107 64.6664 81.2403 64.5929C81.3693 64.5194 81.5201 64.4894 81.6693 64.5074C81.8281 64.5085 81.9845 64.545 82.1253 64.6152C82.1921 64.643 82.2481 64.6887 82.288 64.747C82.3278 64.8052 82.3485 64.8733 82.3485 64.9435L82.1253 68.5183L85.9179 68.2978H85.9835C86.2673 68.2978 86.4042 68.4987 86.4042 68.8956C86.407 69.114 86.3694 69.3312 86.2931 69.537C86.2169 69.7379 86.1254 69.8359 86.0189 69.8359L82.3839 69.7428V79.2678C82.362 79.8705 82.5134 80.4673 82.8202 80.9921C82.9733 81.2224 83.1893 81.4086 83.4434 81.5306C83.698 81.652 83.9818 81.7048 84.265 81.6825C84.8786 81.6944 85.4872 81.5774 86.0497 81.3395C86.2112 81.267 86.3812 81.2142 86.5567 81.1826C86.6268 81.1799 86.6964 81.1941 86.7592 81.224C86.822 81.254 86.8764 81.2986 86.9163 81.3541C87.0195 81.4962 87.1064 81.6492 87.1748 81.8099C87.1973 81.8589 87.2074 81.9128 87.2057 81.9667C87.2057 82.0494 87.1445 82.1425 87.0127 82.2454C86.4732 82.6048 85.8753 82.8743 85.2432 83.0436C84.601 83.1906 83.942 83.2597 83.2813 83.2494C82.7731 83.2537 82.2689 83.1563 81.8011 82.9635C81.3339 82.7702 80.9127 82.4861 80.5639 82.1278Z" fill="#333132"/>
<path d="M89.7963 82.6276C89.6982 82.5008 89.6466 82.3456 89.6494 82.1871C89.6494 81.9176 89.7352 81.756 89.8468 81.6972C90.0336 81.634 90.2321 81.6073 90.4301 81.6188C90.8513 81.6552 91.2731 81.5572 91.6315 81.34C91.8497 81.1783 91.9955 80.9415 92.037 80.6785C92.0735 80.2832 92.0892 79.8858 92.0824 79.4883V72.3142C92.0892 71.9168 92.0735 71.5193 92.037 71.124C91.9966 70.8622 91.8508 70.6264 91.6315 70.4674C91.2748 70.2458 90.8519 70.1457 90.4301 70.1838C90.2293 70.1963 90.0285 70.1593 89.8468 70.076C89.715 70.0025 89.6494 69.831 89.6494 69.5566C89.6522 69.427 89.6982 69.3018 89.7812 69.1994C89.8255 69.1385 89.8838 69.0884 89.9517 69.053C90.019 69.017 90.0942 68.9969 90.1716 68.9936C91.3662 68.8456 92.5407 68.5728 93.6742 68.1808C93.9142 68.0888 94.1644 68.0245 94.4196 67.9897H94.5161C94.866 67.9897 95.0231 68.1906 95.0231 68.5869V79.4932C95.013 79.8912 95.0349 80.2892 95.0887 80.6834C95.1386 80.9469 95.2889 81.1827 95.5099 81.3449C95.8677 81.5621 96.2901 81.6601 96.7113 81.6237H96.9037C97.0405 81.616 97.1768 81.6487 97.294 81.7168C97.3804 81.7804 97.4309 81.9373 97.4567 82.2068C97.4595 82.363 97.4135 82.5165 97.3249 82.6472C97.2823 82.7093 97.2239 82.7588 97.1555 82.7915C97.0871 82.8242 97.0108 82.8389 96.9345 82.8334C95.6821 82.7746 94.5463 82.7403 93.5272 82.7403C92.5087 82.7403 91.4285 82.7746 90.1559 82.8334C90.0829 82.8307 90.0123 82.8105 89.9495 82.7746C89.8866 82.7387 89.8339 82.688 89.7963 82.6276Z" fill="#333132"/>
<path d="M101.167 81.0607C99.9167 79.7023 99.2896 77.8839 99.2863 75.6054C99.3076 74.2677 99.6828 72.9577 100.377 71.7997C101.033 70.7037 101.977 69.7951 103.114 69.1651C104.273 68.5265 105.578 68.177 106.911 68.1465C108.151 68.1144 109.381 68.373 110.496 68.9005C110.979 69.1248 111.381 69.4831 111.652 69.9301C111.923 70.3765 112.05 70.8916 112.016 71.4082C112.026 72.0273 111.815 72.6311 111.418 73.1173C111.23 73.3541 110.986 73.5446 110.707 73.672C110.427 73.8 110.12 73.8615 109.811 73.8517C109.434 73.8631 109.062 73.7532 108.757 73.5387C108.463 73.328 108.316 73.1516 108.316 73.0046C108.402 72.9006 108.5 72.8069 108.61 72.7253C108.814 72.544 108.995 72.3382 109.147 72.1133C109.313 71.8656 109.398 71.5754 109.39 71.2808C109.406 70.9966 109.347 70.713 109.22 70.456C109.092 70.1996 108.9 69.978 108.661 69.8114C108.138 69.4727 107.519 69.3012 106.891 69.3219C105.221 69.3219 104.091 69.9127 103.5 71.0947C102.86 72.4884 102.556 74.0036 102.607 75.527C102.543 77.0476 102.971 78.5503 103.829 79.8264C104.181 80.3556 104.667 80.7885 105.241 81.0852C105.815 81.3819 106.458 81.5316 107.109 81.5213C107.943 81.5453 108.768 81.3455 109.492 80.9431C110.221 80.489 110.836 79.8836 111.292 79.1704C111.326 79.1181 111.374 79.0757 111.431 79.0484C111.489 79.0207 111.552 79.0087 111.616 79.0136C111.742 79.0169 111.865 79.049 111.976 79.1067C112.084 79.1524 112.174 79.2292 112.234 79.3272C112.296 79.4208 112.33 79.5292 112.331 79.6408C112.323 79.7306 112.29 79.8172 112.234 79.8901C111.543 80.8544 110.633 81.6531 109.573 82.2264C108.597 82.7784 107.49 83.0751 106.359 83.0882C104.155 83.0947 102.425 82.4191 101.167 81.0607Z" fill="#333132"/>
<path d="M115.672 82.0304C115.278 81.6629 114.968 81.2197 114.761 80.7297C114.554 80.2397 114.455 79.7137 114.471 79.1851C114.486 78.6559 114.615 78.1359 114.85 77.6579C115.084 77.1799 115.42 76.7542 115.834 76.4084C116.79 75.73 117.904 75.2874 119.079 75.1203C120.692 74.89 122.316 74.7381 123.945 74.6651V72.1917C124.009 71.3424 123.723 70.5028 123.15 69.8555C122.643 69.3219 121.77 69.0573 120.615 69.0573C119.976 69.0459 119.353 69.2561 118.861 69.6502C118.616 69.8424 118.421 70.0874 118.292 70.3656C118.162 70.6433 118.102 70.9471 118.115 71.2514C118.103 71.5454 118.189 71.8351 118.359 72.079C118.5 72.2843 118.671 72.4688 118.866 72.6278C119.048 72.7743 119.139 72.8576 119.139 72.8821C119.139 73.0046 119.002 73.1663 118.734 73.3721C118.441 73.58 118.083 73.6857 117.72 73.671C117.428 73.6791 117.138 73.6209 116.874 73.5005C116.61 73.3808 116.379 73.2027 116.199 72.9801C115.818 72.5173 115.618 71.9402 115.631 71.3494C115.613 70.8475 115.747 70.3515 116.018 69.9225C116.288 69.4929 116.682 69.1499 117.152 68.9348C118.283 68.3871 119.538 68.1176 120.802 68.1514C122.313 68.0899 123.811 68.4285 125.137 69.1308C126.252 69.7771 126.805 70.977 126.805 72.7356V80.0371C126.836 80.4874 126.99 80.9219 127.251 81.2959C127.387 81.4952 127.576 81.6552 127.798 81.7598C128.02 81.8638 128.267 81.9084 128.513 81.8883C128.646 81.8779 128.779 81.9128 128.888 81.9863C128.965 82.0451 129 82.1823 129 82.393C129 82.6037 128.802 82.8236 128.402 82.9412C128.017 83.0528 127.617 83.1105 127.215 83.1127C126.431 83.1241 125.665 82.8813 125.041 82.4224C124.737 82.2046 124.486 81.928 124.301 81.6095C124.117 81.2915 124.004 80.9393 123.971 80.5761C123.502 81.4048 122.767 82.0647 121.877 82.4567C120.928 82.896 119.888 83.1203 118.835 83.1127C117.675 83.1617 116.541 82.7741 115.672 82.0304ZM121.902 80.8745C122.526 80.5217 123.04 80.0148 123.393 79.4056C123.764 78.7817 123.955 78.0728 123.945 77.3536V75.5662C121.674 75.7328 120.074 76.0883 119.144 76.6338C118.684 76.906 118.311 77.2953 118.065 77.7592C117.819 78.2231 117.71 78.7435 117.75 79.2635C117.75 80.6839 118.45 81.3939 119.86 81.3939C120.576 81.401 121.282 81.2219 121.902 80.8745Z" fill="#333132"/>
<path d="M95.0736 62.01H95.114L95.1599 62.0394L95.2104 62.0737C95.2295 62.0841 95.2469 62.0972 95.2609 62.1129C95.4976 62.3307 95.6586 62.6133 95.7231 62.9225C95.7876 63.2318 95.7517 63.553 95.621 63.8416C95.5879 63.9205 95.547 63.9956 95.4993 64.067C95.4494 64.1399 95.3933 64.2085 95.3321 64.2728C94.9614 64.7263 94.4661 65.0698 93.9025 65.2642C93.3388 65.4586 92.7303 65.495 92.1458 65.3704C91.5614 65.2457 91.0258 64.9647 90.599 64.5591C90.1727 64.1535 89.8732 63.6401 89.7352 63.0777C89.7089 62.9699 89.6903 62.8599 89.6797 62.7494C89.6315 62.3579 89.6673 61.9616 89.7857 61.5843C89.8165 61.4912 89.9225 61.4569 89.9175 61.5843C89.9203 61.7923 89.9663 61.9975 90.0532 62.1881C90.1407 62.3781 90.2669 62.549 90.4245 62.6911L90.4756 62.7347L90.526 62.769L90.5664 62.7984H90.6074C90.9624 63.0151 91.3909 63.0891 91.802 63.0053C92.2131 62.9209 92.5738 62.6852 92.8077 62.3481C92.9153 62.1701 93.0606 62.016 93.2339 61.8963C93.4072 61.7759 93.6047 61.6926 93.8133 61.6507C94.0225 61.6093 94.2379 61.6104 94.4465 61.6551C94.6546 61.6992 94.8515 61.7852 95.0231 61.9071L95.0736 62.01Z" fill="#333132"/>
<path d="M0.00165558 95.5277V90.7328H0.686062V93.0494L2.90152 90.7426H3.79885L1.47694 93.1376L4.10304 95.5375H3.11952L0.686062 93.2307V95.5375L0.00165558 95.5277Z" fill="#333132"/>
<path d="M4.0118 95.5271V94.9544C4.14864 94.9968 4.29575 94.9968 4.43259 94.9544C4.53378 94.8999 4.60989 94.8106 4.64552 94.7045C4.69643 94.5629 4.73377 94.417 4.75705 94.2689C4.80774 93.9798 4.85337 93.6564 4.89393 93.2895C4.93449 92.922 4.96998 92.5545 5.00039 92.1336C5.03081 91.7122 5.0663 91.2472 5.09672 90.7376H8.46806V95.532H7.79889V91.3648H5.72535C5.72535 91.6779 5.67976 91.9915 5.6493 92.3002C5.6189 92.6084 5.57834 92.9024 5.57834 93.1915C5.57834 93.48 5.5175 93.7348 5.48709 93.9749C5.45666 94.215 5.41611 94.4252 5.38062 94.5967C5.34142 94.8166 5.26793 95.03 5.16262 95.2288C5.12103 95.3034 5.06408 95.3698 4.99522 95.4226C4.92637 95.4759 4.84705 95.5146 4.76212 95.5369C4.51462 95.5903 4.25773 95.587 4.0118 95.5271Z" fill="#333132"/>
<path d="M13.6899 90.7328V95.5277H13.0308V91.7955L10.3134 95.5277H9.75072V90.7328H10.4047V94.4355L13.1322 90.7328H13.6899Z" fill="#333132"/>
<path d="M14.9775 95.5277V90.7328H15.6518V92.8142H18.4452V90.7328H19.1245V95.5277H18.4452V93.4414H15.6518V95.5277H14.9775Z" fill="#333132"/>
<path d="M24.3361 90.7328V95.5277H23.6923V91.7955L20.9749 95.5277H20.402V90.7328H21.0611V94.4355L23.7835 90.7328H24.3361Z" fill="#333132"/>
<path d="M25.629 95.5277V90.7328H26.3134V93.0494L28.5289 90.7426H29.4059L27.084 93.1376L29.7101 95.5375H28.7468L26.3134 93.2307V95.5375L25.629 95.5277Z" fill="#333132"/>
<path d="M31.6061 95.6594C31.2817 95.6676 30.9601 95.6006 30.6682 95.4634C30.4314 95.3469 30.2343 95.1667 30.1004 94.9446C29.9746 94.7295 29.9099 94.4862 29.9128 94.2395C29.9064 94.0076 29.9623 93.7778 30.0751 93.5731C30.1838 93.3891 30.3368 93.2328 30.5212 93.118C30.7228 92.9938 30.9435 92.9013 31.1751 92.8436C31.4287 92.7848 31.6821 92.7358 32.0117 92.6868L32.9039 92.5594C33.198 92.5251 33.4514 92.4908 33.6745 92.4565L33.4362 92.5986C33.4749 92.2278 33.3741 91.8559 33.1523 91.5505C33.0184 91.4269 32.8587 91.3322 32.6838 91.2734C32.5089 91.2141 32.323 91.1917 32.1384 91.2081C31.835 91.1982 31.5352 91.2745 31.2766 91.428C31.0237 91.593 30.843 91.8423 30.7696 92.1287L30.1105 91.9425C30.2117 91.5483 30.4542 91.201 30.7949 90.9631C31.1905 90.7099 31.6592 90.5847 32.1333 90.6054C32.5335 90.595 32.9302 90.6794 33.2892 90.8504C33.5996 91.0061 33.841 91.2652 33.9686 91.5799C34.0322 91.7285 34.0732 91.8853 34.0902 92.0454C34.0902 92.2169 34.0902 92.3928 34.0902 92.5692V95.5467H33.4971V94.3228L33.6694 94.3958C33.5167 94.7818 33.2416 95.1106 32.8837 95.3366C32.4985 95.5598 32.0552 95.672 31.6061 95.6594ZM31.6872 95.0965C31.972 95.1003 32.2543 95.0437 32.5135 94.9299C32.7392 94.8286 32.9347 94.6734 33.0814 94.4791C33.2252 94.288 33.3207 94.0664 33.3602 93.8328C33.3986 93.6722 33.419 93.5078 33.421 93.3434C33.421 93.1572 33.421 93.02 33.421 92.9269L33.6796 93.0543L32.9344 93.1425C32.664 93.1719 32.4003 93.2062 32.1435 93.2454C31.9079 93.2791 31.6744 93.3249 31.4439 93.382C31.3013 93.4218 31.1637 93.4757 31.0332 93.5437C30.9054 93.6134 30.7948 93.7087 30.7087 93.823C30.6226 93.951 30.5784 94.1012 30.582 94.2542C30.5818 94.3952 30.6203 94.5335 30.6935 94.6555C30.7723 94.7943 30.8924 94.907 31.0383 94.9789C31.2406 95.0709 31.4641 95.1112 31.6872 95.0965Z" fill="#333132"/>
<path d="M37.122 95.5277V90.7328H37.8013V93.0494L40.0168 90.7426H40.9141L38.5922 93.1376L41.2183 95.5375H40.2399L37.8064 93.2307V95.5375L37.122 95.5277Z" fill="#333132"/>
<path d="M41.6796 97.6527V90.7328H42.2829V94.3419H42.359V97.6527H41.6796ZM43.9103 95.6594C43.4971 95.672 43.0909 95.5533 42.7544 95.3213C42.4295 95.0921 42.1796 94.778 42.0345 94.4154C41.8671 94.0038 41.7845 93.5644 41.7912 93.1223C41.7821 92.6797 41.8666 92.2398 42.0396 91.8298C42.1865 91.4694 42.4361 91.1569 42.7595 90.9282C43.1092 90.7126 43.5156 90.5977 43.9306 90.5977C44.3456 90.5977 44.752 90.7126 45.1017 90.9282C45.4328 91.1585 45.6923 91.4721 45.852 91.8347C46.0294 92.2403 46.1175 92.677 46.1106 93.1174C46.1188 93.5617 46.0289 94.0027 45.8469 94.4105C45.6966 94.7725 45.4458 95.0878 45.122 95.3213C44.7655 95.5555 44.3411 95.6741 43.9103 95.6594ZM43.8393 95.0518C44.1494 95.0616 44.4541 94.9724 44.7062 94.7976C44.9417 94.6201 45.118 94.38 45.2132 94.1067C45.333 93.7936 45.3915 93.4615 45.3856 93.1272C45.391 92.794 45.3343 92.4619 45.2183 92.1478C45.1222 91.8766 44.946 91.6382 44.7113 91.4623C44.4527 91.2995 44.1506 91.2124 43.8418 91.2124C43.5331 91.2124 43.231 91.2995 42.9724 91.4623C42.7378 91.6338 42.5614 91.8696 42.4654 92.138C42.2356 92.7821 42.2356 93.4822 42.4654 94.1263C42.5615 94.398 42.7378 94.6364 42.9724 94.8123C43.2265 94.9811 43.531 95.0655 43.8393 95.0518Z" fill="#333132"/>
<path d="M48.5389 95.6594C48.2145 95.6693 47.8925 95.6017 47.6011 95.464C47.3643 95.3469 47.1672 95.1667 47.0332 94.9446C46.9074 94.7295 46.8428 94.4862 46.8457 94.2395C46.8355 94.0174 46.8864 93.7964 46.9932 93.5993C47.1001 93.4022 47.2591 93.2361 47.454 93.118C47.6556 92.9939 47.8764 92.9013 48.108 92.8436C48.3564 92.7848 48.615 92.7358 48.9395 92.6868L49.8368 92.5599C50.1257 92.5256 50.3843 92.4913 50.6023 92.457L50.364 92.5991C50.4027 92.2278 50.302 91.8559 50.0802 91.5511C49.9468 91.4264 49.7872 91.3311 49.6121 91.2718C49.4371 91.213 49.2508 91.1912 49.0662 91.2081C48.7626 91.1966 48.4624 91.2734 48.2043 91.4286C47.9518 91.5935 47.7712 91.8429 47.6974 92.1287L47.0434 91.9425C47.1407 91.5467 47.384 91.1983 47.7278 90.9631C48.1211 90.7094 48.5885 90.5841 49.0611 90.6059C49.4614 90.5939 49.8584 90.6783 50.217 90.8504C50.5236 91.0028 50.7631 91.2565 50.8913 91.5658C50.9556 91.7139 50.9949 91.8707 51.0079 92.0307C51.0282 92.2049 51.0384 92.3797 51.0383 92.555V95.5326H50.4249V94.3228L50.6023 94.3963C50.4495 94.7818 50.1745 95.1106 49.8165 95.3366C49.4313 95.5598 48.988 95.672 48.5389 95.6594ZM48.615 95.0965C48.8999 95.1014 49.1823 95.0442 49.4413 94.9299C49.6685 94.8286 49.8656 94.674 50.0142 94.4796C50.156 94.2869 50.2513 94.0658 50.2931 93.8328C50.3291 93.6717 50.3495 93.5078 50.3539 93.3434C50.3539 93.1572 50.3539 93.02 50.3539 92.9269L50.6074 93.0543L49.8621 93.1425C49.5917 93.1719 49.3281 93.2062 49.0713 93.2454C48.8358 93.2791 48.6022 93.3249 48.3716 93.3826C48.2308 93.4218 48.0948 93.4762 47.9661 93.5443C47.8369 93.6112 47.7258 93.7071 47.6416 93.823C47.553 93.9504 47.5086 94.1012 47.5148 94.2542C47.5152 94.3947 47.5517 94.5324 47.6213 94.6555C47.7006 94.796 47.8228 94.9087 47.9711 94.9789C48.1718 95.0709 48.3935 95.1112 48.615 95.0965Z" fill="#333132"/>
<path d="M54.2779 95.6594C53.8318 95.673 53.3913 95.5609 53.0104 95.336C52.6641 95.1172 52.3911 94.8063 52.2246 94.4399C52.0391 94.0239 51.9434 93.5758 51.9434 93.1229C51.9434 92.6693 52.0391 92.2213 52.2246 91.8053C52.394 91.4405 52.6708 91.1324 53.0206 90.919C53.4137 90.7034 53.8594 90.5934 54.3112 90.6004C54.7632 90.607 55.205 90.7306 55.5909 90.9581C55.9564 91.1874 56.2261 91.5342 56.3511 91.9376L55.6923 92.1434C55.5868 91.8685 55.3932 91.6333 55.1397 91.4721C54.8806 91.3137 54.5793 91.232 54.2728 91.2369C53.9534 91.2233 53.6376 91.3077 53.3704 91.477C53.1381 91.649 52.9621 91.8821 52.8634 92.1483C52.7427 92.4614 52.6809 92.7929 52.6809 93.1278C52.6614 93.6205 52.8072 94.1067 53.0966 94.5134C53.2377 94.6881 53.4211 94.827 53.6305 94.9174C53.84 95.0077 54.0692 95.0475 54.2981 95.0328C54.6023 95.0426 54.9025 94.9642 55.16 94.8074C55.4052 94.65 55.5931 94.4219 55.6974 94.1562L56.3769 94.3468C56.2199 94.7464 55.9383 95.0889 55.5706 95.3262C55.1842 95.5603 54.7336 95.6769 54.2779 95.6594Z" fill="#333132"/>
<path d="M59.2357 95.6594C58.7915 95.672 58.3529 95.5598 57.9737 95.336C57.6243 95.1166 57.3461 94.8057 57.1728 94.4399C56.9776 94.0266 56.8806 93.5769 56.8884 93.1229C56.8783 92.6677 56.9771 92.2169 57.1779 91.8053C57.3506 91.44 57.631 91.1318 57.9838 90.919C58.3703 90.7066 58.8066 90.595 59.2514 90.595C59.6956 90.595 60.132 90.7066 60.5184 90.919C60.8701 91.1335 61.1488 91.4438 61.3193 91.8102C61.5128 92.2202 61.6082 92.6672 61.5986 93.118C61.6093 93.5748 61.5139 94.0283 61.3193 94.4448C61.1449 94.8107 60.8628 95.1188 60.5083 95.3311C60.1263 95.5582 59.6844 95.6725 59.2357 95.6594ZM59.2357 95.0328C59.4707 95.0491 59.7057 95.0094 59.9205 94.9174C60.1353 94.8248 60.3232 94.6827 60.4679 94.5036C60.754 94.098 60.8964 93.6134 60.8734 93.1229C60.8992 92.6318 60.7568 92.1461 60.4679 91.7416C60.3198 91.5668 60.1308 91.4291 59.9166 91.3398C59.7023 91.25 59.469 91.2119 59.2357 91.2271C58.9132 91.2135 58.594 91.2973 58.3231 91.4672C58.078 91.6333 57.8907 91.8674 57.7858 92.1385C57.6613 92.4505 57.6007 92.7831 57.6086 93.118C57.5828 93.6123 57.7269 94.1012 58.0192 94.5085C58.1633 94.6838 58.3495 94.8232 58.5615 94.9141C58.773 95.0056 59.0046 95.0459 59.2357 95.0328Z" fill="#333132"/>
<path d="M63.8191 95.5277V91.3355H62.0597V90.7328H66.2522V91.3355H64.4933V95.5277H63.8191Z" fill="#333132"/>
<path d="M67.1294 95.5277V90.7328H67.8086V92.5599H69.0913C69.2169 92.5626 69.3426 92.5741 69.4665 92.5937C69.6959 92.6367 69.9158 92.7178 70.1154 92.8338C70.3112 92.9525 70.4677 93.1223 70.5669 93.3238C70.6864 93.5524 70.7436 93.8067 70.7341 94.0631C70.7554 94.4186 70.6359 94.7693 70.3992 95.0426C70.1811 95.2783 69.8894 95.44 69.568 95.5032C69.4345 95.5304 69.2988 95.5467 69.1625 95.5522H68.7318L67.1294 95.5277ZM67.8035 94.9642H69.0408C69.1552 94.9571 69.2691 94.9408 69.3807 94.9152C69.5518 94.8667 69.706 94.7736 69.8266 94.6457C69.9752 94.4758 70.0481 94.2559 70.0296 94.0337C70.0453 93.8154 69.9769 93.5987 69.8367 93.4267C69.7021 93.2857 69.5243 93.1898 69.3297 93.1523C69.2281 93.131 69.1244 93.118 69.0206 93.1131H67.8136L67.8035 94.9642ZM71.3168 95.5277V90.7328H71.9915V95.5277H71.3168Z" fill="#333132"/>
<path d="M79.0585 90.7328V95.5277H78.3995V91.7955L75.6821 95.5277H75.1145V90.7328H75.7684V94.4355L78.4909 90.7328H79.0585Z" fill="#333132"/>
<path d="M82.1764 95.5277V90.7328H82.7742L84.7109 94.6506L86.6476 90.7328H87.2461V95.5277H86.5921V92.1287L84.9241 95.5277H84.4984L82.8303 92.1287V95.5277H82.1764Z" fill="#333132"/>
<path d="M90.6023 95.6594C90.1575 95.6736 89.7189 95.5609 89.3398 95.3366C88.9887 95.1172 88.7094 94.8068 88.5338 94.4404C88.3482 94.0239 88.2523 93.5759 88.2523 93.1229C88.2523 92.6699 88.3482 92.2218 88.5338 91.8053C88.7088 91.44 88.9904 91.1318 89.3448 90.919C89.7301 90.7039 90.1671 90.5912 90.6124 90.5912C91.0572 90.5912 91.4941 90.7039 91.8794 90.919C92.2316 91.1351 92.5115 91.4449 92.6859 91.8102C92.8682 92.2273 92.9619 92.6753 92.9619 93.1278C92.9619 93.5802 92.8682 94.0283 92.6859 94.4453C92.5109 94.8096 92.2311 95.1172 91.8794 95.3317C91.4958 95.5582 91.0521 95.672 90.6023 95.6594ZM90.6023 95.0328C90.8356 95.0491 91.0701 95.0088 91.2843 94.9168C91.498 94.8248 91.6853 94.6827 91.8289 94.5041C92.0942 94.0887 92.2344 93.6107 92.2344 93.1229C92.2344 92.635 92.0942 92.157 91.8289 91.7416C91.6825 91.5668 91.4946 91.4291 91.281 91.3393C91.0673 91.25 90.8345 91.2113 90.6023 91.2277C90.2781 91.2141 89.9573 91.2979 89.6847 91.4678C89.4407 91.6354 89.254 91.8685 89.1468 92.1385C89.0246 92.451 88.9646 92.7837 88.9696 93.118C88.9427 93.6134 89.0891 94.1034 89.3852 94.509C89.5288 94.6849 89.7144 94.8248 89.9265 94.9163C90.1385 95.0072 90.3707 95.0475 90.6023 95.0328Z" fill="#333132"/>
<path d="M93.502 95.5271V94.9544C93.6388 94.9968 93.7858 94.9968 93.9227 94.9544C94.0242 94.8999 94.0999 94.8106 94.1358 94.7045C94.1885 94.5629 94.2272 94.417 94.2524 94.2689C94.2979 93.9798 94.3433 93.6564 94.3842 93.2895C94.4246 92.922 94.46 92.5545 94.4908 92.1336C94.5211 91.7122 94.5564 91.2472 94.5918 90.7376H97.9632V95.532H97.289V91.3648H95.2155C95.2155 91.6779 95.17 91.9915 95.1448 92.3002C95.119 92.6084 95.0836 92.9073 95.0584 93.1964C95.0332 93.4849 94.9973 93.7397 94.9619 93.9798C94.9266 94.2199 94.8963 94.4301 94.8554 94.6016C94.8167 94.8215 94.7426 95.0349 94.6378 95.2337C94.5968 95.3088 94.5402 95.3752 94.4712 95.4286C94.4022 95.4819 94.3226 95.5206 94.2373 95.5418C93.9939 95.5914 93.7426 95.5859 93.502 95.5271Z" fill="#333132"/>
<path d="M101.319 95.6594C100.875 95.6725 100.437 95.5603 100.057 95.3366C99.7063 95.1172 99.4265 94.8068 99.2509 94.4404C99.0653 94.0239 98.9699 93.5759 98.9699 93.1229C98.9699 92.6699 99.0653 92.2218 99.2509 91.8053C99.4259 91.44 99.708 91.1318 100.062 90.919C100.447 90.7039 100.885 90.5912 101.329 90.5912C101.774 90.5912 102.212 90.7039 102.597 90.919C102.949 91.1351 103.229 91.4449 103.403 91.8102C103.589 92.2262 103.684 92.6748 103.684 93.1278C103.684 93.5807 103.589 94.0288 103.403 94.4453C103.229 94.8096 102.949 95.1172 102.597 95.3317C102.213 95.5582 101.769 95.672 101.319 95.6594ZM101.319 95.0328C101.553 95.0491 101.788 95.0088 102.001 94.9168C102.216 94.8248 102.402 94.6827 102.546 94.5041C102.811 94.0887 102.952 93.6107 102.952 93.1229C102.952 92.635 102.811 92.157 102.546 91.7416C102.4 91.5668 102.212 91.4291 101.998 91.3393C101.784 91.25 101.552 91.2113 101.319 91.2277C100.995 91.2141 100.674 91.2979 100.402 91.4678C100.158 91.6354 99.9716 91.8685 99.8645 92.1385C99.7417 92.451 99.6816 92.7837 99.6867 93.118C99.6603 93.6134 99.8067 94.1034 100.103 94.509C100.246 94.6849 100.432 94.8248 100.644 94.9163C100.856 95.0072 101.088 95.0475 101.319 95.0328Z" fill="#333132"/>
<path d="M104.311 96.5904V94.9642C104.427 94.9751 104.544 94.9566 104.651 94.9097C104.758 94.8635 104.85 94.791 104.919 94.7001C105.074 94.4404 105.175 94.1546 105.218 93.8579C105.269 93.608 105.309 93.3336 105.345 93.0445C105.38 92.7559 105.406 92.4227 105.431 92.065C105.456 91.7079 105.482 91.2522 105.502 90.748H108.782V94.9789H109.259V96.6051H108.605V95.5424H104.944V96.6051L104.311 96.5904ZM108.108 94.9642V91.2914H106.125C106.125 91.5168 106.125 91.7814 106.085 92.0062C106.045 92.2316 106.05 92.4962 106.029 92.7608C106.009 93.0249 105.979 93.2503 105.948 93.4708C105.918 93.6913 105.887 93.8824 105.847 94.0484C105.809 94.233 105.759 94.4148 105.695 94.5923C105.648 94.7344 105.564 94.8624 105.451 94.9642H108.108Z" fill="#333132"/>
<path d="M112.042 95.6594C111.597 95.672 111.159 95.5598 110.78 95.336C110.428 95.1183 110.15 94.8068 109.979 94.4399C109.783 94.0266 109.686 93.5769 109.694 93.1229C109.684 92.6677 109.783 92.2169 109.984 91.8053C110.156 91.44 110.437 91.1318 110.79 90.919C111.176 90.7066 111.612 90.595 112.057 90.595C112.501 90.595 112.938 90.7066 113.324 90.919C113.676 91.1335 113.955 91.4438 114.126 91.8102C114.319 92.2202 114.414 92.6672 114.404 93.118C114.415 93.5748 114.32 94.0283 114.126 94.4448C113.951 94.8107 113.669 95.1188 113.314 95.3311C112.932 95.5582 112.49 95.6725 112.042 95.6594ZM112.042 95.0328C112.277 95.0491 112.512 95.0094 112.726 94.9174C112.941 94.8248 113.129 94.6827 113.274 94.5036C113.56 94.098 113.702 93.6134 113.679 93.1229C113.705 92.6318 113.563 92.1461 113.274 91.7416C113.126 91.5668 112.937 91.4291 112.722 91.3398C112.508 91.25 112.275 91.2119 112.042 91.2271C111.719 91.2135 111.4 91.2973 111.13 91.4672C110.884 91.6333 110.697 91.8674 110.592 92.1385C110.467 92.4505 110.407 92.7831 110.414 93.118C110.389 93.6123 110.533 94.1012 110.825 94.5085C110.97 94.6838 111.155 94.8232 111.367 94.9141C111.579 95.0056 111.81 95.0459 112.042 95.0328Z" fill="#333132"/>
<path d="M117.481 95.6594C117.036 95.673 116.595 95.5609 116.214 95.336C115.868 95.1172 115.595 94.8063 115.429 94.4399C115.243 94.0239 115.147 93.5758 115.147 93.1229C115.147 92.6693 115.243 92.2213 115.429 91.8053C115.598 91.4405 115.875 91.1324 116.225 90.919C116.618 90.7034 117.063 90.5934 117.515 90.6004C117.967 90.607 118.409 90.7306 118.795 90.9581C119.16 91.1874 119.43 91.5342 119.555 91.9376L118.896 92.1434C118.79 91.8685 118.597 91.6333 118.343 91.4721C118.084 91.3137 117.783 91.232 117.476 91.2369C117.157 91.2233 116.841 91.3077 116.574 91.477C116.342 91.649 116.166 91.8821 116.067 92.1483C115.946 92.4614 115.885 92.7929 115.885 93.1278C115.865 93.6205 116.011 94.1067 116.3 94.5134C116.442 94.6881 116.625 94.827 116.834 94.9174C117.044 95.0077 117.273 95.0475 117.502 95.0328C117.806 95.0426 118.106 94.9642 118.364 94.8074C118.609 94.65 118.797 94.4219 118.901 94.1562L119.581 94.3468C119.424 94.7464 119.142 95.0889 118.774 95.3262C118.388 95.5603 117.937 95.6769 117.481 95.6594Z" fill="#333132"/>
<path d="M121.73 95.5277V91.3355H119.971V90.7328H124.164V91.3355H122.404V95.5277H121.73Z" fill="#333132"/>
<path d="M128.975 90.7328V95.5277H128.321V91.7955L125.598 95.5277H125.03V90.7328H125.689V94.4355L128.412 90.7328H128.975Z" fill="#333132"/>
</g>
</g>
</svg>
