<svg width="493" height="501" viewBox="0 0 493 501" fill="none" xmlns="http://www.w3.org/2000/svg">
<path d="M347 45V88H336.5M347 45V2H336.5M347 45H336.5M347 45H263M263 45V2H273.5M263 45V88H273.5M263 45H273.5M305 2V45M305 2H315.5M305 2H294.5M305 45V88M305 45H315.5M305 45H294.5M305 88H315.5M305 88H294.5M326 45V88M326 45V2M326 45H336.5M326 45H315.5M326 88H336.5M326 88H315.5M326 2H336.5M326 2H315.5M284 2V45M284 2H294.5M284 2H273.5M284 45V88M284 45H294.5M284 45H273.5M284 88H294.5M284 88H273.5M336.5 2V45M336.5 45V88M315.5 45V88M315.5 45V2M294.5 2V45M294.5 45V88M273.5 88V45M273.5 45V2" stroke="#7E7E7E" stroke-width="2" stroke-linejoin="round"/>
<path d="M353 45L259 45" stroke="#B0966B" stroke-width="4" stroke-linecap="round" stroke-linejoin="round"/>
<path d="M219 287H66V347.5H2V498H109.5M219 287V244M219 287H289V276.25M219 287V347.5H227M219 87.5V143.5M219 87.5V44.75V2H262.5H353H396.5M219 87.5H262.5H353M387 87.5H396.5M490.5 87.5V2H396.5M490.5 87.5H396.5M490.5 87.5V101.5M396.5 2V53.5M396.5 76.5V87.5M490.5 143.5H425.5M490.5 143.5V129.5M490.5 143.5V221.5M219 143.5H289M219 143.5V201M303.5 143.5H289M289 143.5V157.875M289 143.5V129.5M289 87.5V101.5M289 201V238M289 201V186.625M289 201H271.5M219 201V244M219 201H236.5M219 244H289M289 244V238M289 244V254.75M289 238H297.5M303.5 347.5H289M289 347.5V330M289 347.5H227M109.5 498H161V409H227M109.5 498V448M227 409H333M227 409V393.625M227 347.5V362.875M490.5 221.5V260.5M490.5 221.5H333V260.5M333 362.875V260.5M333 260.5H380.5M490.5 260.5H445M490.5 260.5V367M490.5 367V409H333M490.5 367H445M333 409V393.625" stroke="#B0966B" stroke-width="4" stroke-linecap="round" stroke-linejoin="round"/>
<path d="M161 499V410H227V394.625V363.875V348.5H219V288H66V348.5H2V499H109.5H161Z" fill="#D2B88F" stroke="#B0966B" stroke-width="4" stroke-linecap="round" stroke-linejoin="round"/>
<path d="M61.1278 386V374.48H62.3038V379.92L67.5598 374.48H69.0638L63.6958 380.04L69.5038 386H67.9678L62.3038 380.24V386H61.1278ZM73.5952 386.24C72.7365 386.24 72.0032 386.045 71.3952 385.656C70.7872 385.267 70.3205 384.728 69.9952 384.04C69.6699 383.352 69.5072 382.563 69.5072 381.672C69.5072 380.765 69.6725 379.971 70.0032 379.288C70.3339 378.605 70.8032 378.075 71.4112 377.696C72.0245 377.312 72.7525 377.12 73.5952 377.12C74.4592 377.12 75.1952 377.315 75.8032 377.704C76.4165 378.088 76.8832 378.624 77.2032 379.312C77.5285 379.995 77.6912 380.781 77.6912 381.672C77.6912 382.579 77.5285 383.376 77.2032 384.064C76.8779 384.747 76.4085 385.28 75.7952 385.664C75.1819 386.048 74.4485 386.24 73.5952 386.24ZM73.5952 385.112C74.5552 385.112 75.2699 384.795 75.7392 384.16C76.2085 383.52 76.4432 382.691 76.4432 381.672C76.4432 380.627 76.2059 379.795 75.7312 379.176C75.2619 378.557 74.5499 378.248 73.5952 378.248C72.9499 378.248 72.4165 378.395 71.9952 378.688C71.5792 378.976 71.2672 379.379 71.0592 379.896C70.8565 380.408 70.7552 381 70.7552 381.672C70.7552 382.712 70.9952 383.547 71.4752 384.176C71.9552 384.8 72.6619 385.112 73.5952 385.112ZM83.0399 386.24C82.1706 386.24 81.4346 386.045 80.8319 385.656C80.2293 385.267 79.7706 384.731 79.4559 384.048C79.1466 383.36 78.9866 382.571 78.9759 381.68C78.9866 380.773 79.1519 379.979 79.4719 379.296C79.7919 378.608 80.2533 378.075 80.8559 377.696C81.4586 377.312 82.1893 377.12 83.0479 377.12C83.9226 377.12 84.6826 377.333 85.3279 377.76C85.9786 378.187 86.4239 378.771 86.6639 379.512L85.5119 379.88C85.3093 379.363 84.9866 378.963 84.5439 378.68C84.1066 378.392 83.6053 378.248 83.0399 378.248C82.4053 378.248 81.8799 378.395 81.4639 378.688C81.0479 378.976 80.7386 379.379 80.5359 379.896C80.3333 380.413 80.2293 381.008 80.2239 381.68C80.2346 382.715 80.4746 383.547 80.9439 384.176C81.4133 384.8 82.1119 385.112 83.0399 385.112C83.6266 385.112 84.1253 384.979 84.5359 384.712C84.9519 384.44 85.2666 384.045 85.4799 383.528L86.6639 383.88C86.3439 384.648 85.8746 385.235 85.2559 385.64C84.6373 386.04 83.8986 386.24 83.0399 386.24ZM88.3073 386V377.36H89.3553L92.7233 384.432L96.0993 377.36H97.1393V386H96.0033V379.872L93.0993 386H92.3553L89.4513 379.872V386H88.3073ZM103.034 386.24C102.191 386.24 101.46 386.053 100.842 385.68C100.228 385.307 99.7511 384.781 99.4098 384.104C99.0685 383.427 98.8978 382.632 98.8978 381.72C98.8978 380.776 99.0658 379.96 99.4018 379.272C99.7378 378.584 100.21 378.053 100.818 377.68C101.431 377.307 102.154 377.12 102.986 377.12C103.839 377.12 104.567 377.317 105.17 377.712C105.772 378.101 106.228 378.661 106.538 379.392C106.847 380.123 106.988 380.995 106.962 382.008H105.762V381.592C105.74 380.472 105.498 379.627 105.034 379.056C104.575 378.485 103.903 378.2 103.018 378.2C102.09 378.2 101.378 378.501 100.882 379.104C100.391 379.707 100.146 380.565 100.146 381.68C100.146 382.768 100.391 383.613 100.882 384.216C101.378 384.813 102.079 385.112 102.986 385.112C103.604 385.112 104.143 384.971 104.602 384.688C105.066 384.4 105.431 383.987 105.698 383.448L106.794 383.872C106.452 384.624 105.948 385.208 105.282 385.624C104.62 386.035 103.871 386.24 103.034 386.24ZM99.7298 382.008V381.024H106.33V382.008H99.7298ZM110.972 386V378.448H107.908V377.36H115.212V378.448H112.148V386H110.972ZM120.189 386.24C119.33 386.24 118.597 386.045 117.989 385.656C117.381 385.267 116.914 384.728 116.589 384.04C116.264 383.352 116.101 382.563 116.101 381.672C116.101 380.765 116.266 379.971 116.597 379.288C116.928 378.605 117.397 378.075 118.005 377.696C118.618 377.312 119.346 377.12 120.189 377.12C121.053 377.12 121.789 377.315 122.397 377.704C123.01 378.088 123.477 378.624 123.797 379.312C124.122 379.995 124.285 380.781 124.285 381.672C124.285 382.579 124.122 383.376 123.797 384.064C123.472 384.747 123.002 385.28 122.389 385.664C121.776 386.048 121.042 386.24 120.189 386.24ZM120.189 385.112C121.149 385.112 121.864 384.795 122.333 384.16C122.802 383.52 123.037 382.691 123.037 381.672C123.037 380.627 122.8 379.795 122.325 379.176C121.856 378.557 121.144 378.248 120.189 378.248C119.544 378.248 119.01 378.395 118.589 378.688C118.173 378.976 117.861 379.379 117.653 379.896C117.45 380.408 117.349 381 117.349 381.672C117.349 382.712 117.589 383.547 118.069 384.176C118.549 384.8 119.256 385.112 120.189 385.112ZM125.25 386V384.968C125.57 385.027 125.812 385.013 125.978 384.928C126.148 384.837 126.274 384.688 126.354 384.48C126.434 384.267 126.5 384.003 126.554 383.688C126.639 383.165 126.716 382.589 126.786 381.96C126.855 381.331 126.916 380.637 126.97 379.88C127.028 379.117 127.087 378.277 127.146 377.36H133.018V386H131.85V378.488H128.234C128.196 379.053 128.154 379.616 128.106 380.176C128.058 380.736 128.007 381.275 127.954 381.792C127.906 382.304 127.852 382.776 127.794 383.208C127.735 383.64 127.674 384.013 127.61 384.328C127.514 384.803 127.386 385.181 127.226 385.464C127.071 385.747 126.839 385.933 126.53 386.024C126.22 386.115 125.794 386.107 125.25 386ZM138.861 386.24C138.002 386.24 137.269 386.045 136.661 385.656C136.053 385.267 135.586 384.728 135.261 384.04C134.935 383.352 134.773 382.563 134.773 381.672C134.773 380.765 134.938 379.971 135.269 379.288C135.599 378.605 136.069 378.075 136.677 377.696C137.29 377.312 138.018 377.12 138.861 377.12C139.725 377.12 140.461 377.315 141.069 377.704C141.682 378.088 142.149 378.624 142.469 379.312C142.794 379.995 142.957 380.781 142.957 381.672C142.957 382.579 142.794 383.376 142.469 384.064C142.143 384.747 141.674 385.28 141.061 385.664C140.447 386.048 139.714 386.24 138.861 386.24ZM138.861 385.112C139.821 385.112 140.535 384.795 141.005 384.16C141.474 383.52 141.709 382.691 141.709 381.672C141.709 380.627 141.471 379.795 140.997 379.176C140.527 378.557 139.815 378.248 138.861 378.248C138.215 378.248 137.682 378.395 137.261 378.688C136.845 378.976 136.533 379.379 136.325 379.896C136.122 380.408 136.021 381 136.021 381.672C136.021 382.712 136.261 383.547 136.741 384.176C137.221 384.8 137.927 385.112 138.861 385.112ZM144.722 386V377.36H150.642V378.488H145.898V386H144.722ZM159.023 377.36V386H157.879V379.272L153.143 386H152.151V377.36H153.295V384.032L158.039 377.36H159.023ZM166.684 386V382.744H164.668C164.434 382.744 164.191 382.736 163.94 382.72C163.695 382.699 163.466 382.669 163.252 382.632C162.644 382.515 162.127 382.248 161.7 381.832C161.279 381.411 161.068 380.829 161.068 380.088C161.068 379.363 161.266 378.781 161.66 378.344C162.055 377.901 162.532 377.613 163.092 377.48C163.348 377.421 163.607 377.387 163.868 377.376C164.135 377.365 164.364 377.36 164.556 377.36H167.86L167.868 386H166.684ZM160.788 386L163.196 382.376H164.5L162.076 386H160.788ZM164.604 381.736H166.684V378.368H164.604C164.476 378.368 164.298 378.373 164.068 378.384C163.839 378.395 163.623 378.429 163.42 378.488C163.244 378.541 163.068 378.635 162.892 378.768C162.722 378.896 162.578 379.069 162.46 379.288C162.343 379.501 162.284 379.763 162.284 380.072C162.284 380.504 162.402 380.851 162.636 381.112C162.876 381.368 163.175 381.544 163.532 381.64C163.724 381.683 163.916 381.709 164.108 381.72C164.3 381.731 164.466 381.736 164.604 381.736Z" fill="white"/>
<path d="M333 222V261.104V348.336V363.752V394.584V410H491V367.888V261.104V222H333Z" fill="#D2B88F" stroke="#B0966B" stroke-width="4" stroke-linecap="round" stroke-linejoin="round"/>
<path d="M378.543 322V311.608H374.519V310.48H383.743V311.608H379.719V322H378.543ZM385.018 322V313.36H388.578C388.76 313.36 388.978 313.371 389.234 313.392C389.496 313.413 389.738 313.453 389.962 313.512C390.448 313.64 390.837 313.901 391.13 314.296C391.429 314.691 391.578 315.165 391.578 315.72C391.578 316.029 391.53 316.307 391.434 316.552C391.344 316.792 391.213 317 391.042 317.176C390.962 317.267 390.874 317.347 390.778 317.416C390.682 317.48 390.589 317.533 390.498 317.576C390.669 317.608 390.853 317.683 391.05 317.8C391.36 317.981 391.594 318.227 391.754 318.536C391.914 318.84 391.994 319.211 391.994 319.648C391.994 320.24 391.853 320.723 391.57 321.096C391.288 321.469 390.909 321.725 390.434 321.864C390.221 321.923 389.989 321.96 389.738 321.976C389.493 321.992 389.261 322 389.042 322H385.018ZM386.202 321H388.986C389.098 321 389.24 320.992 389.41 320.976C389.581 320.955 389.733 320.928 389.866 320.896C390.181 320.816 390.41 320.656 390.554 320.416C390.704 320.171 390.778 319.904 390.778 319.616C390.778 319.237 390.666 318.928 390.442 318.688C390.224 318.443 389.93 318.293 389.562 318.24C389.44 318.213 389.312 318.197 389.178 318.192C389.045 318.187 388.925 318.184 388.818 318.184H386.202V321ZM386.202 317.176H388.618C388.757 317.176 388.912 317.168 389.082 317.152C389.258 317.131 389.41 317.096 389.538 317.048C389.816 316.952 390.018 316.787 390.146 316.552C390.28 316.317 390.346 316.061 390.346 315.784C390.346 315.48 390.274 315.213 390.13 314.984C389.992 314.755 389.781 314.595 389.498 314.504C389.306 314.435 389.098 314.395 388.874 314.384C388.656 314.373 388.517 314.368 388.458 314.368H386.202V317.176ZM397.197 322.24C396.338 322.24 395.605 322.045 394.997 321.656C394.389 321.267 393.922 320.728 393.597 320.04C393.271 319.352 393.109 318.563 393.109 317.672C393.109 316.765 393.274 315.971 393.605 315.288C393.935 314.605 394.405 314.075 395.013 313.696C395.626 313.312 396.354 313.12 397.197 313.12C398.061 313.12 398.797 313.315 399.405 313.704C400.018 314.088 400.485 314.624 400.805 315.312C401.13 315.995 401.293 316.781 401.293 317.672C401.293 318.579 401.13 319.376 400.805 320.064C400.479 320.747 400.01 321.28 399.397 321.664C398.783 322.048 398.05 322.24 397.197 322.24ZM397.197 321.112C398.157 321.112 398.871 320.795 399.341 320.16C399.81 319.52 400.045 318.691 400.045 317.672C400.045 316.627 399.807 315.795 399.333 315.176C398.863 314.557 398.151 314.248 397.197 314.248C396.551 314.248 396.018 314.395 395.597 314.688C395.181 314.976 394.869 315.379 394.661 315.896C394.458 316.408 394.357 317 394.357 317.672C394.357 318.712 394.597 319.547 395.077 320.176C395.557 320.8 396.263 321.112 397.197 321.112ZM406.714 322.24C405.871 322.24 405.14 322.053 404.522 321.68C403.908 321.307 403.431 320.781 403.09 320.104C402.748 319.427 402.578 318.632 402.578 317.72C402.578 316.776 402.746 315.96 403.082 315.272C403.418 314.584 403.89 314.053 404.498 313.68C405.111 313.307 405.834 313.12 406.666 313.12C407.519 313.12 408.247 313.317 408.85 313.712C409.452 314.101 409.908 314.661 410.218 315.392C410.527 316.123 410.668 316.995 410.642 318.008H409.442V317.592C409.42 316.472 409.178 315.627 408.714 315.056C408.255 314.485 407.583 314.2 406.698 314.2C405.77 314.2 405.058 314.501 404.562 315.104C404.071 315.707 403.826 316.565 403.826 317.68C403.826 318.768 404.071 319.613 404.562 320.216C405.058 320.813 405.759 321.112 406.666 321.112C407.284 321.112 407.823 320.971 408.282 320.688C408.746 320.4 409.111 319.987 409.378 319.448L410.474 319.872C410.132 320.624 409.628 321.208 408.962 321.624C408.3 322.035 407.551 322.24 406.714 322.24ZM403.41 318.008V317.024H410.01V318.008H403.41ZM417.964 322V314.448H414.9V313.36H422.204V314.448H419.14V322H417.964ZM427.385 322.24C426.543 322.24 425.812 322.053 425.193 321.68C424.58 321.307 424.103 320.781 423.761 320.104C423.42 319.427 423.249 318.632 423.249 317.72C423.249 316.776 423.417 315.96 423.753 315.272C424.089 314.584 424.561 314.053 425.169 313.68C425.783 313.307 426.505 313.12 427.337 313.12C428.191 313.12 428.919 313.317 429.521 313.712C430.124 314.101 430.58 314.661 430.889 315.392C431.199 316.123 431.34 316.995 431.313 318.008H430.113V317.592C430.092 316.472 429.849 315.627 429.385 315.056C428.927 314.485 428.255 314.2 427.369 314.2C426.441 314.2 425.729 314.501 425.233 315.104C424.743 315.707 424.497 316.565 424.497 317.68C424.497 318.768 424.743 319.613 425.233 320.216C425.729 320.813 426.431 321.112 427.337 321.112C427.956 321.112 428.495 320.971 428.953 320.688C429.417 320.4 429.783 319.987 430.049 319.448L431.145 319.872C430.804 320.624 430.3 321.208 429.633 321.624C428.972 322.035 428.223 322.24 427.385 322.24ZM424.081 318.008V317.024H430.681V318.008H424.081ZM432.289 322V320.968C432.609 321.027 432.851 321.013 433.017 320.928C433.187 320.837 433.313 320.688 433.393 320.48C433.473 320.267 433.539 320.003 433.593 319.688C433.678 319.165 433.755 318.589 433.825 317.96C433.894 317.331 433.955 316.637 434.009 315.88C434.067 315.117 434.126 314.277 434.185 313.36H440.057V322H438.889V314.488H435.273C435.235 315.053 435.193 315.616 435.145 316.176C435.097 316.736 435.046 317.275 434.993 317.792C434.945 318.304 434.891 318.776 434.833 319.208C434.774 319.64 434.713 320.013 434.649 320.328C434.553 320.803 434.425 321.181 434.265 321.464C434.11 321.747 433.878 321.933 433.569 322.024C433.259 322.115 432.833 322.107 432.289 322ZM445.9 322.24C445.041 322.24 444.308 322.045 443.7 321.656C443.092 321.267 442.625 320.728 442.3 320.04C441.975 319.352 441.812 318.563 441.812 317.672C441.812 316.765 441.977 315.971 442.308 315.288C442.639 314.605 443.108 314.075 443.716 313.696C444.329 313.312 445.057 313.12 445.9 313.12C446.764 313.12 447.5 313.315 448.108 313.704C448.721 314.088 449.188 314.624 449.508 315.312C449.833 315.995 449.996 316.781 449.996 317.672C449.996 318.579 449.833 319.376 449.508 320.064C449.183 320.747 448.713 321.28 448.1 321.664C447.487 322.048 446.753 322.24 445.9 322.24ZM445.9 321.112C446.86 321.112 447.575 320.795 448.044 320.16C448.513 319.52 448.748 318.691 448.748 317.672C448.748 316.627 448.511 315.795 448.036 315.176C447.567 314.557 446.855 314.248 445.9 314.248C445.255 314.248 444.721 314.395 444.3 314.688C443.884 314.976 443.572 315.379 443.364 315.896C443.161 316.408 443.06 317 443.06 317.672C443.06 318.712 443.3 319.547 443.78 320.176C444.26 320.8 444.967 321.112 445.9 321.112Z" fill="white"/>
<path d="M396.767 88H387.243H353.159H289V102V130V144V158.375V187.125V201.5V222H333.109H491V144V130V102V88H396.767Z" fill="#D2B88F" stroke="#B0966B" stroke-width="4" stroke-linecap="round" stroke-linejoin="round"/>
<path d="M375.44 161V159.472C374.848 159.573 374.274 159.547 373.72 159.392C373.17 159.232 372.677 158.957 372.24 158.568C371.808 158.173 371.464 157.669 371.208 157.056C370.952 156.437 370.824 155.715 370.824 154.888C370.824 154.061 370.952 153.339 371.208 152.72C371.464 152.101 371.808 151.595 372.24 151.2C372.677 150.8 373.17 150.523 373.72 150.368C374.274 150.208 374.848 150.179 375.44 150.28V149.48H376.608V150.28C377.2 150.179 377.773 150.208 378.328 150.368C378.882 150.523 379.376 150.8 379.808 151.2C380.245 151.595 380.592 152.101 380.848 152.72C381.104 153.339 381.232 154.061 381.232 154.888C381.232 155.715 381.104 156.437 380.848 157.056C380.592 157.669 380.245 158.173 379.808 158.568C379.376 158.957 378.882 159.232 378.328 159.392C377.773 159.547 377.2 159.573 376.608 159.472V161H375.44ZM375.44 158.352V151.376C374.933 151.301 374.469 151.339 374.048 151.488C373.632 151.632 373.274 151.864 372.976 152.184C372.677 152.504 372.445 152.896 372.28 153.36C372.12 153.819 372.04 154.328 372.04 154.888C372.04 155.448 372.12 155.957 372.28 156.416C372.445 156.869 372.677 157.253 372.976 157.568C373.274 157.883 373.632 158.109 374.048 158.248C374.469 158.387 374.933 158.421 375.44 158.352ZM376.608 158.352C377.12 158.421 377.584 158.387 378 158.248C378.416 158.104 378.773 157.877 379.072 157.568C379.376 157.253 379.608 156.869 379.768 156.416C379.933 155.963 380.016 155.461 380.016 154.912C380.016 154.357 379.933 153.851 379.768 153.392C379.608 152.928 379.376 152.533 379.072 152.208C378.773 151.883 378.416 151.645 378 151.496C377.584 151.341 377.12 151.301 376.608 151.376V158.352ZM386.447 161.24C385.588 161.24 384.855 161.045 384.247 160.656C383.639 160.267 383.172 159.728 382.847 159.04C382.521 158.352 382.359 157.563 382.359 156.672C382.359 155.765 382.524 154.971 382.855 154.288C383.185 153.605 383.655 153.075 384.263 152.696C384.876 152.312 385.604 152.12 386.447 152.12C387.311 152.12 388.047 152.315 388.655 152.704C389.268 153.088 389.735 153.624 390.055 154.312C390.38 154.995 390.543 155.781 390.543 156.672C390.543 157.579 390.38 158.376 390.055 159.064C389.729 159.747 389.26 160.28 388.647 160.664C388.033 161.048 387.3 161.24 386.447 161.24ZM386.447 160.112C387.407 160.112 388.121 159.795 388.591 159.16C389.06 158.52 389.295 157.691 389.295 156.672C389.295 155.627 389.057 154.795 388.583 154.176C388.113 153.557 387.401 153.248 386.447 153.248C385.801 153.248 385.268 153.395 384.847 153.688C384.431 153.976 384.119 154.379 383.911 154.896C383.708 155.408 383.607 156 383.607 156.672C383.607 157.712 383.847 158.547 384.327 159.176C384.807 159.8 385.513 160.112 386.447 160.112ZM395.891 151.336C395.513 151.336 395.166 151.243 394.852 151.056C394.537 150.869 394.286 150.621 394.1 150.312C393.918 149.997 393.828 149.651 393.828 149.272H394.804C394.804 149.571 394.91 149.827 395.124 150.04C395.337 150.253 395.593 150.36 395.891 150.36C396.196 150.36 396.452 150.253 396.66 150.04C396.873 149.827 396.98 149.571 396.98 149.272H397.956C397.956 149.651 397.862 149.997 397.676 150.312C397.494 150.621 397.246 150.869 396.932 151.056C396.617 151.243 396.27 151.336 395.891 151.336ZM399.172 152.36V161H398.028V154.272L393.292 161H392.3V152.36H393.444V159.032L398.188 152.36H399.172ZM405.073 161.24C404.23 161.24 403.5 161.053 402.881 160.68C402.268 160.307 401.79 159.781 401.449 159.104C401.108 158.427 400.937 157.632 400.937 156.72C400.937 155.776 401.105 154.96 401.441 154.272C401.777 153.584 402.249 153.053 402.857 152.68C403.47 152.307 404.193 152.12 405.025 152.12C405.878 152.12 406.606 152.317 407.209 152.712C407.812 153.101 408.268 153.661 408.577 154.392C408.886 155.123 409.028 155.995 409.001 157.008H407.801V156.592C407.78 155.472 407.537 154.627 407.073 154.056C406.614 153.485 405.942 153.2 405.057 153.2C404.129 153.2 403.417 153.501 402.921 154.104C402.43 154.707 402.185 155.565 402.185 156.68C402.185 157.768 402.43 158.613 402.921 159.216C403.417 159.813 404.118 160.112 405.025 160.112C405.644 160.112 406.182 159.971 406.641 159.688C407.105 159.4 407.47 158.987 407.737 158.448L408.833 158.872C408.492 159.624 407.988 160.208 407.321 160.624C406.66 161.035 405.91 161.24 405.073 161.24ZM401.769 157.008V156.024H408.369V157.008H401.769Z" fill="white"/>
<path d="M219 88V144H289V130V102V88H262.5H219Z" fill="#D2B88F" stroke="#B0966B" stroke-width="4" stroke-linecap="round" stroke-linejoin="round"/>
<path d="M245.037 122L241.709 110.48H242.933L245.629 119.992L248.309 110.488L249.541 110.48L252.237 119.992L254.917 110.48H256.149L252.829 122H251.645L248.925 112.552L246.221 122H245.037ZM261.886 122.24C260.739 122.24 259.771 121.987 258.982 121.48C258.192 120.968 257.595 120.261 257.19 119.36C256.784 118.459 256.582 117.419 256.582 116.24C256.582 115.061 256.784 114.021 257.19 113.12C257.595 112.219 258.192 111.515 258.982 111.008C259.771 110.496 260.739 110.24 261.886 110.24C263.224 110.24 264.318 110.584 265.166 111.272C266.014 111.955 266.595 112.872 266.91 114.024L265.71 114.336C265.464 113.424 265.024 112.701 264.39 112.168C263.755 111.635 262.92 111.368 261.886 111.368C260.984 111.368 260.235 111.573 259.638 111.984C259.04 112.395 258.59 112.968 258.286 113.704C257.987 114.435 257.832 115.28 257.822 116.24C257.816 117.2 257.963 118.045 258.262 118.776C258.566 119.507 259.019 120.08 259.622 120.496C260.23 120.907 260.984 121.112 261.886 121.112C262.92 121.112 263.755 120.845 264.39 120.312C265.024 119.773 265.464 119.051 265.71 118.144L266.91 118.456C266.595 119.608 266.014 120.528 265.166 121.216C264.318 121.899 263.224 122.24 261.886 122.24Z" fill="white"/>
<path d="M397 53.8012V2H353.377H262.623H219V45V88H262.623H289.197H353.377H387.473H397V76.9357V53.8012Z" fill="#D2B88F" stroke="#B0966B" stroke-width="4" stroke-linecap="round" stroke-linejoin="round"/>
<path d="M271.5 51V49.952C271.793 49.9787 272.036 49.968 272.228 49.92C272.42 49.8667 272.574 49.7493 272.692 49.568C272.814 49.3867 272.921 49.1173 273.012 48.76C273.102 48.3973 273.193 47.9253 273.284 47.344C273.385 46.7147 273.47 46.088 273.54 45.464C273.614 44.84 273.678 44.208 273.732 43.568C273.79 42.9227 273.838 42.2613 273.876 41.584C273.913 40.9067 273.948 40.2053 273.98 39.48H281.252V51H280.076V40.608H275.116C275.078 41.1573 275.041 41.72 275.004 42.296C274.972 42.872 274.929 43.4613 274.876 44.064C274.828 44.6667 274.766 45.288 274.692 45.928C274.622 46.5627 274.534 47.2187 274.428 47.896C274.342 48.408 274.241 48.8827 274.124 49.32C274.012 49.7573 273.852 50.1253 273.644 50.424C273.441 50.7227 273.166 50.928 272.82 51.04C272.478 51.152 272.038 51.1387 271.5 51ZM287.143 51.24C286.301 51.24 285.57 51.0533 284.951 50.68C284.338 50.3067 283.861 49.7813 283.519 49.104C283.178 48.4267 283.007 47.632 283.007 46.72C283.007 45.776 283.175 44.96 283.511 44.272C283.847 43.584 284.319 43.0533 284.927 42.68C285.541 42.3067 286.263 42.12 287.095 42.12C287.949 42.12 288.677 42.3173 289.279 42.712C289.882 43.1013 290.338 43.6613 290.647 44.392C290.957 45.1227 291.098 45.9947 291.071 47.008H289.871V46.592C289.85 45.472 289.607 44.6267 289.143 44.056C288.685 43.4853 288.013 43.2 287.127 43.2C286.199 43.2 285.487 43.5013 284.991 44.104C284.501 44.7067 284.255 45.5653 284.255 46.68C284.255 47.768 284.501 48.6133 284.991 49.216C285.487 49.8133 286.189 50.112 287.095 50.112C287.714 50.112 288.253 49.9707 288.711 49.688C289.175 49.4 289.541 48.9867 289.807 48.448L290.903 48.872C290.562 49.624 290.058 50.208 289.391 50.624C288.73 51.0347 287.981 51.24 287.143 51.24ZM283.839 47.008V46.024H290.439V47.008H283.839ZM296.431 51.24C295.561 51.24 294.825 51.0453 294.223 50.656C293.62 50.2667 293.161 49.7307 292.847 49.048C292.537 48.36 292.377 47.5707 292.367 46.68C292.377 45.7733 292.543 44.9787 292.863 44.296C293.183 43.608 293.644 43.0747 294.247 42.696C294.849 42.312 295.58 42.12 296.439 42.12C297.313 42.12 298.073 42.3333 298.719 42.76C299.369 43.1867 299.815 43.7707 300.055 44.512L298.903 44.88C298.7 44.3627 298.377 43.9627 297.935 43.68C297.497 43.392 296.996 43.248 296.431 43.248C295.796 43.248 295.271 43.3947 294.855 43.688C294.439 43.976 294.129 44.3787 293.927 44.896C293.724 45.4133 293.62 46.008 293.615 46.68C293.625 47.7147 293.865 48.5467 294.335 49.176C294.804 49.8 295.503 50.112 296.431 50.112C297.017 50.112 297.516 49.9787 297.927 49.712C298.343 49.44 298.657 49.0453 298.871 48.528L300.055 48.88C299.735 49.648 299.265 50.2347 298.647 50.64C298.028 51.04 297.289 51.24 296.431 51.24ZM303.847 51V43.448H300.783V42.36H308.087V43.448H305.023V51H303.847ZM309.604 51V42.36H310.78V46.112H315.652V42.36H316.828V51H315.652V47.24H310.78V51H309.604ZM325.929 42.36V51H324.785V44.272L320.049 51H319.057V42.36H320.201V49.032L324.945 42.36H325.929ZM335.599 52.496V51H328.167V42.36H329.343V49.872H333.863V42.36H335.039V49.912H336.775V52.496H335.599ZM340.522 51.24C339.871 51.24 339.324 51.1227 338.882 50.888C338.444 50.6533 338.116 50.3413 337.898 49.952C337.679 49.5627 337.57 49.1387 337.57 48.68C337.57 48.2107 337.663 47.8107 337.85 47.48C338.042 47.144 338.3 46.8693 338.626 46.656C338.956 46.4427 339.338 46.28 339.77 46.168C340.207 46.0613 340.69 45.968 341.218 45.888C341.751 45.8027 342.271 45.7307 342.778 45.672C343.29 45.608 343.738 45.5467 344.122 45.488L343.706 45.744C343.722 44.8907 343.556 44.2587 343.21 43.848C342.863 43.4373 342.26 43.232 341.402 43.232C340.81 43.232 340.308 43.3653 339.898 43.632C339.492 43.8987 339.207 44.32 339.042 44.896L337.898 44.56C338.095 43.7867 338.492 43.1867 339.09 42.76C339.687 42.3333 340.463 42.12 341.418 42.12C342.207 42.12 342.876 42.2693 343.426 42.568C343.98 42.8613 344.372 43.288 344.602 43.848C344.708 44.0987 344.778 44.3787 344.81 44.688C344.842 44.9973 344.858 45.312 344.858 45.632V51H343.81V48.832L344.114 48.96C343.82 49.7013 343.364 50.2667 342.746 50.656C342.127 51.0453 341.386 51.24 340.522 51.24ZM340.658 50.224C341.207 50.224 341.687 50.1253 342.098 49.928C342.508 49.7307 342.839 49.4613 343.09 49.12C343.34 48.7733 343.503 48.384 343.578 47.952C343.642 47.6747 343.676 47.3707 343.682 47.04C343.687 46.704 343.69 46.4533 343.69 46.288L344.138 46.52C343.738 46.5733 343.303 46.6267 342.834 46.68C342.37 46.7333 341.911 46.7947 341.458 46.864C341.01 46.9333 340.604 47.016 340.242 47.112C339.996 47.1813 339.759 47.28 339.53 47.408C339.3 47.5307 339.111 47.696 338.962 47.904C338.818 48.112 338.746 48.3707 338.746 48.68C338.746 48.9307 338.807 49.1733 338.93 49.408C339.058 49.6427 339.26 49.8373 339.538 49.992C339.82 50.1467 340.194 50.224 340.658 50.224Z" fill="white"/>
</svg>
