<svg width="493" height="500" viewBox="0 0 493 500" fill="none" xmlns="http://www.w3.org/2000/svg">
<mask id="mask0_952_2781" style="mask-type:luminance" maskUnits="userSpaceOnUse" x="0" y="0" width="493" height="500">
<path d="M161 498V409H227H333H490.5V367V260.5V221.5V143.5V129.5V87.5V2H396.5H353H262.5H219V44.75V87.5V143.5V201V244V287H66V347.5H2V498H109.5H161Z" fill="white" stroke="white" stroke-width="4" stroke-linecap="round" stroke-linejoin="round"/>
</mask>
<g mask="url(#mask0_952_2781)">
<rect width="106" height="188" transform="translate(227 221)" fill="#F8F6F3"/>
<rect width="94" height="85.5" transform="translate(396.5 2)" fill="#F8F6F3"/>
<rect width="70" height="60.5" transform="translate(219 287)" fill="#F8F6F3"/>
<rect width="217" height="211" transform="translate(2 287)" fill="#F8F6F3"/>
<rect width="158" height="188" transform="translate(333 221)" fill="#F8F6F3"/>
<rect width="201.5" height="134" transform="translate(289 87.5)" fill="#D2B88F"/>
<path d="M375.19 160.5V158.972C374.598 159.073 374.024 159.047 373.47 158.892C372.92 158.732 372.427 158.457 371.99 158.068C371.558 157.673 371.214 157.169 370.958 156.556C370.702 155.937 370.574 155.215 370.574 154.388C370.574 153.561 370.702 152.839 370.958 152.22C371.214 151.601 371.558 151.095 371.99 150.7C372.427 150.3 372.92 150.023 373.47 149.868C374.024 149.708 374.598 149.679 375.19 149.78V148.98H376.358V149.78C376.95 149.679 377.523 149.708 378.078 149.868C378.632 150.023 379.126 150.3 379.558 150.7C379.995 151.095 380.342 151.601 380.598 152.22C380.854 152.839 380.982 153.561 380.982 154.388C380.982 155.215 380.854 155.937 380.598 156.556C380.342 157.169 379.995 157.673 379.558 158.068C379.126 158.457 378.632 158.732 378.078 158.892C377.523 159.047 376.95 159.073 376.358 158.972V160.5H375.19ZM375.19 157.852V150.876C374.683 150.801 374.219 150.839 373.798 150.988C373.382 151.132 373.024 151.364 372.726 151.684C372.427 152.004 372.195 152.396 372.03 152.86C371.87 153.319 371.79 153.828 371.79 154.388C371.79 154.948 371.87 155.457 372.03 155.916C372.195 156.369 372.427 156.753 372.726 157.068C373.024 157.383 373.382 157.609 373.798 157.748C374.219 157.887 374.683 157.921 375.19 157.852ZM376.358 157.852C376.87 157.921 377.334 157.887 377.75 157.748C378.166 157.604 378.523 157.377 378.822 157.068C379.126 156.753 379.358 156.369 379.518 155.916C379.683 155.463 379.766 154.961 379.766 154.412C379.766 153.857 379.683 153.351 379.518 152.892C379.358 152.428 379.126 152.033 378.822 151.708C378.523 151.383 378.166 151.145 377.75 150.996C377.334 150.841 376.87 150.801 376.358 150.876V157.852ZM386.197 160.74C385.338 160.74 384.605 160.545 383.997 160.156C383.389 159.767 382.922 159.228 382.597 158.54C382.271 157.852 382.109 157.063 382.109 156.172C382.109 155.265 382.274 154.471 382.605 153.788C382.935 153.105 383.405 152.575 384.013 152.196C384.626 151.812 385.354 151.62 386.197 151.62C387.061 151.62 387.797 151.815 388.405 152.204C389.018 152.588 389.485 153.124 389.805 153.812C390.13 154.495 390.293 155.281 390.293 156.172C390.293 157.079 390.13 157.876 389.805 158.564C389.479 159.247 389.01 159.78 388.397 160.164C387.783 160.548 387.05 160.74 386.197 160.74ZM386.197 159.612C387.157 159.612 387.871 159.295 388.341 158.66C388.81 158.02 389.045 157.191 389.045 156.172C389.045 155.127 388.807 154.295 388.333 153.676C387.863 153.057 387.151 152.748 386.197 152.748C385.551 152.748 385.018 152.895 384.597 153.188C384.181 153.476 383.869 153.879 383.661 154.396C383.458 154.908 383.357 155.5 383.357 156.172C383.357 157.212 383.597 158.047 384.077 158.676C384.557 159.3 385.263 159.612 386.197 159.612ZM395.641 150.836C395.263 150.836 394.916 150.743 394.602 150.556C394.287 150.369 394.036 150.121 393.85 149.812C393.668 149.497 393.578 149.151 393.578 148.772H394.554C394.554 149.071 394.66 149.327 394.874 149.54C395.087 149.753 395.343 149.86 395.641 149.86C395.946 149.86 396.202 149.753 396.41 149.54C396.623 149.327 396.73 149.071 396.73 148.772H397.706C397.706 149.151 397.612 149.497 397.426 149.812C397.244 150.121 396.996 150.369 396.682 150.556C396.367 150.743 396.02 150.836 395.641 150.836ZM398.922 151.86V160.5H397.778V153.772L393.042 160.5H392.05V151.86H393.194V158.532L397.938 151.86H398.922ZM404.823 160.74C403.98 160.74 403.25 160.553 402.631 160.18C402.018 159.807 401.54 159.281 401.199 158.604C400.858 157.927 400.687 157.132 400.687 156.22C400.687 155.276 400.855 154.46 401.191 153.772C401.527 153.084 401.999 152.553 402.607 152.18C403.22 151.807 403.943 151.62 404.775 151.62C405.628 151.62 406.356 151.817 406.959 152.212C407.562 152.601 408.018 153.161 408.327 153.892C408.636 154.623 408.778 155.495 408.751 156.508H407.551V156.092C407.53 154.972 407.287 154.127 406.823 153.556C406.364 152.985 405.692 152.7 404.807 152.7C403.879 152.7 403.167 153.001 402.671 153.604C402.18 154.207 401.935 155.065 401.935 156.18C401.935 157.268 402.18 158.113 402.671 158.716C403.167 159.313 403.868 159.612 404.775 159.612C405.394 159.612 405.932 159.471 406.391 159.188C406.855 158.9 407.22 158.487 407.487 157.948L408.583 158.372C408.242 159.124 407.738 159.708 407.071 160.124C406.41 160.535 405.66 160.74 404.823 160.74ZM401.519 156.508V155.524H408.119V156.508H401.519Z" fill="white"/>
<rect width="177.5" height="85.5" transform="translate(219 2)" fill="#F8F6F3"/>
<rect width="70" height="56" transform="translate(219 87.5)" fill="#F8F6F3"/>
<rect width="70" height="100.5" transform="translate(219 143.5)" fill="#F8F6F3"/>
<rect width="70" height="43" transform="translate(219 244)" fill="#F8F6F3"/>
<path d="M347 45V88H336.5M347 45V2H336.5M347 45H336.5M347 45H263M263 45V2H273.5M263 45V88H273.5M263 45H273.5M305 2V45M305 2H315.5M305 2H294.5M305 45V88M305 45H315.5M305 45H294.5M305 88H315.5M305 88H294.5M326 45V88M326 45V2M326 45H336.5M326 45H315.5M326 88H336.5M326 88H315.5M326 2H336.5M326 2H315.5M284 2V45M284 2H294.5M284 2H273.5M284 45V88M284 45H294.5M284 45H273.5M284 88H294.5M284 88H273.5M336.5 2V45M336.5 45V88M315.5 45V88M315.5 45V2M294.5 2V45M294.5 45V88M273.5 88V45M273.5 45V2" stroke="#7E7E7E" stroke-width="2" stroke-linejoin="round"/>
<path d="M353 45L259 45" stroke="#B0966B" stroke-width="4" stroke-linecap="round" stroke-linejoin="round"/>
<path d="M219 287H66V347.5H2V498H109.5M219 287V244M219 287H289V276.25M219 287V347.5H227M219 87.5V143.5M219 87.5V44.75V2H262.5H353H396.5M219 87.5H262.5H353M387 87.5H396.5M490.5 87.5V2H396.5M490.5 87.5H396.5M490.5 87.5V101.5M396.5 2V53.5M396.5 76.5V87.5M490.5 143.5H425.5M490.5 143.5V129.5M490.5 143.5V221.5M219 143.5H289M219 143.5V201M303.5 143.5H289M289 143.5V157.875M289 143.5V129.5M289 87.5V101.5M289 201V238M289 201V186.625M289 201H271.5M219 201V244M219 201H236.5M219 244H289M289 244V238M289 244V254.75M289 238H297.5M303.5 347.5H289M289 347.5V330M289 347.5H227M109.5 498H161V409H227M109.5 498V448M227 409H333M227 409V393.625M227 347.5V362.875M490.5 221.5V260.5M490.5 221.5H333V260.5M333 362.875V260.5M333 260.5H380.5M490.5 260.5H445M490.5 260.5V367M490.5 367V409H333M490.5 367H445M333 409V393.625" stroke="#B0966B" stroke-width="4" stroke-linecap="round" stroke-linejoin="round"/>
</g>
</svg>
