<svg width="546" height="578" viewBox="0 0 546 578" fill="none" xmlns="http://www.w3.org/2000/svg">
<path d="M411.245 1V110.121L413.146 110.555C429.165 77.2901 462.973 54.3693 502.08 54.3693H545V477.303C545 532.372 500.75 577 446.183 577H412.245H402.263H278.49H268.508H143.737H134.753H99.8172C45.2502 577 1 532.372 1 477.303V53.3624H43.9196C83.8508 53.3624 118.257 77.259 133.842 111.663L135.753 111.25V1H178.673C222.434 1 259.561 29.7018 272.548 69.4775L273.499 72.3887L274.45 69.4775C287.438 29.7018 324.564 1 368.325 1H411.245Z" stroke="#D2B88F" stroke-width="2"/>
</svg>
