<svg width="31" height="24" viewBox="0 0 31 24" fill="none" xmlns="http://www.w3.org/2000/svg">
<path opacity="0.4" d="M24.8396 23.5C23.2763 23.5 21.8747 22.9859 20.6348 21.9578C19.3949 20.9297 18.4245 19.6446 17.7237 18.1024C17.0229 16.5032 16.6725 14.9039 16.6725 13.3046C16.6725 10.9057 17.2655 8.87803 18.4515 7.22164C19.6914 5.56524 21.2278 4.19444 23.0606 3.10921C24.9474 2.02399 26.8073 1.19579 28.6402 0.624617C29.1792 0.396151 29.6105 0.481828 29.934 0.881645C30.3113 1.22435 30.5 1.65272 30.5 2.16678C30.5 2.68083 30.2305 3.05209 29.6914 3.28056C25.1092 5.10831 22.8181 7.65002 22.8181 10.9057C22.8181 11.9338 23.1146 12.7906 23.7075 13.476C24.3544 14.1042 25.0553 14.6754 25.81 15.1895C26.6186 15.6464 27.3194 16.189 27.9124 16.8173C28.5593 17.4456 28.8828 18.2452 28.8828 19.2162C28.8828 20.3014 28.4784 21.301 27.6698 22.2149C26.9151 23.0716 25.9717 23.5 24.8396 23.5ZM8.66712 23.5C7.10377 23.5 5.70216 22.9859 4.46226 21.9578C3.22237 20.9297 2.25202 19.6446 1.55121 18.1024C0.850404 16.5032 0.5 14.9039 0.5 13.3046C0.5 10.9057 1.09299 8.87803 2.27898 7.22164C3.51887 5.56524 5.05526 4.19444 6.88814 3.10921C8.77493 2.02399 10.6348 1.19579 12.4677 0.624617C13.0067 0.396151 13.438 0.481828 13.7615 0.881645C14.1388 1.22435 14.3275 1.65272 14.3275 2.16678C14.3275 2.68083 14.058 3.05209 13.5189 3.28056C8.93666 5.10831 6.64555 7.65002 6.64555 10.9057C6.64555 11.9338 6.94205 12.7906 7.53504 13.476C8.18194 14.1042 8.88275 14.6754 9.63747 15.1895C10.4461 15.6464 11.1469 16.189 11.7399 16.8173C12.3868 17.4456 12.7102 18.2452 12.7102 19.2162C12.7102 20.3014 12.3059 21.301 11.4973 22.2149C10.7426 23.0716 9.79919 23.5 8.66712 23.5Z" fill="#D2B88F"/>
</svg>
