<svg width="31" height="24" viewBox="0 0 31 24" fill="none" xmlns="http://www.w3.org/2000/svg">
<path opacity="0.4" d="M6.16038 0.5C7.72372 0.5 9.12534 1.01406 10.3652 2.04216C11.6051 3.07027 12.5755 4.3554 13.2763 5.89756C13.9771 7.49684 14.3275 9.09612 14.3275 10.6954C14.3275 13.0943 13.7345 15.122 12.5485 16.7784C11.3086 18.4348 9.77224 19.8056 7.93935 20.8908C6.05256 21.976 4.19272 22.8042 2.35984 23.3754C1.82075 23.6038 1.38949 23.5182 1.06604 23.1184C0.688679 22.7757 0.5 22.3473 0.5 21.8332C0.5 21.3192 0.769541 20.9479 1.30862 20.7194C5.89083 18.8917 8.18194 16.35 8.18194 13.0943C8.18194 12.0662 7.88544 11.2094 7.29245 10.524C6.64555 9.89576 5.94474 9.32459 5.19003 8.81053C4.3814 8.3536 3.68059 7.81099 3.0876 7.1827C2.4407 6.55441 2.11725 5.75477 2.11725 4.78378C2.11725 3.69856 2.52156 2.69901 3.33019 1.78514C4.08491 0.928379 5.0283 0.5 6.16038 0.5ZM22.3329 0.5C23.8962 0.5 25.2978 1.01406 26.5377 2.04216C27.7776 3.07027 28.748 4.3554 29.4488 5.89756C30.1496 7.49684 30.5 9.09612 30.5 10.6954C30.5 13.0943 29.907 15.122 28.721 16.7784C27.4811 18.4348 25.9447 19.8056 24.1119 20.8908C22.2251 21.976 20.3652 22.8042 18.5323 23.3754C17.9933 23.6038 17.562 23.5182 17.2385 23.1184C16.8612 22.7757 16.6725 22.3473 16.6725 21.8332C16.6725 21.3192 16.942 20.9479 17.4811 20.7194C22.0633 18.8917 24.3544 16.35 24.3544 13.0943C24.3544 12.0662 24.058 11.2094 23.465 10.524C22.8181 9.89576 22.1173 9.32459 21.3625 8.81053C20.5539 8.3536 19.8531 7.81099 19.2601 7.1827C18.6132 6.55441 18.2898 5.75477 18.2898 4.78378C18.2898 3.69856 18.6941 2.69901 19.5027 1.78514C20.2574 0.928379 21.2008 0.5 22.3329 0.5Z" fill="#D2B88F"/>
</svg>
