<svg xmlns="http://www.w3.org/2000/svg">
  <symbol id="whatsapp" viewBox="0 0 20 20">
    <g>
    <path fill-rule="evenodd" clip-rule="evenodd" d="M9.99554 18.1562C8.51339 18.1562 7.0625 17.7589 5.79911 17.0089L5.5 16.8304L2.38393 17.6473L3.21429 14.6071L3.01786 14.2946C2.19196 12.9821 1.75893 11.4688 1.75893 9.91072C1.75893 5.37054 5.45536 1.67411 10 1.67411C12.2009 1.67411 14.2679 2.53125 15.8214 4.08929C17.375 5.64732 18.3304 7.71429 18.3259 9.91518C18.3259 14.4598 14.5357 18.1562 9.99554 18.1562ZM12.8214 11.183C13.0491 11.2634 14.2679 11.8616 14.5134 11.9866C14.7589 12.1071 14.9241 12.1696 14.9821 12.2813C15.0446 12.3839 15.0446 12.8795 14.8393 13.4598C14.6339 14.0402 13.6473 14.567 13.1696 14.6384C12.3839 14.7545 11.7679 14.6964 10.1964 14.0179C7.70982 12.942 6.08929 10.442 5.96429 10.2768C5.84375 10.1116 4.95536 8.93304 4.95536 7.71429C4.95536 6.49554 5.59375 5.89732 5.82143 5.64732C6.04911 5.40179 6.31696 5.33929 6.48214 5.33929C6.64732 5.33929 6.8125 5.33929 6.95536 5.34821C7.10714 5.35714 7.3125 5.29018 7.51339 5.77232C7.71875 6.26786 8.21429 7.48661 8.27679 7.61161C8.33929 7.73661 8.37947 7.87946 8.29911 8.04464C7.82589 8.99107 7.31696 8.95982 7.57143 9.39732C8.53125 11.0446 9.48661 11.6161 10.942 12.3438C11.1875 12.4688 11.3348 12.4464 11.4777 12.2813C11.625 12.1116 12.0982 11.558 12.2634 11.308C12.4286 11.058 12.5938 11.0982 12.8214 11.183Z"/>
    <path fill-rule="evenodd" clip-rule="evenodd" d="M9.99554 0C12.6429 0 15.1339 1.03125 17.0045 2.90625C18.875 4.78125 20 7.26786 20 9.91518C20 15.3795 15.4554 19.8259 9.99554 19.8259H9.99107C8.33036 19.8259 6.70089 19.4107 5.25446 18.6205L0 20L1.40625 14.8661C0.540179 13.3616 0.0848214 11.6563 0.0848214 9.91072C0.0848214 4.44643 4.53125 0 9.99554 0ZM5.79911 17.0089C7.0625 17.7589 8.51339 18.1562 9.99554 18.1562C14.5357 18.1562 18.3259 14.4598 18.3259 9.91518C18.3304 7.71429 17.375 5.64732 15.8214 4.08929C14.2679 2.53125 12.2009 1.67411 10 1.67411C5.45536 1.67411 1.75893 5.37054 1.75893 9.91072C1.75893 11.4688 2.19196 12.9821 3.01786 14.2946L3.21429 14.6071L2.38393 17.6473L5.5 16.8304L5.79911 17.0089Z"/>
    </g>
  </symbol>
  <symbol id="vk" viewBox="0 0 27 16">
    <g>
    <path d="M25.9074 1.085C26.086 0.46 25.9074 0 25.0483 0H22.2054C21.4814 0 21.1484 0.395 20.9698 0.835C20.9698 0.835 19.5218 4.49 17.4753 6.86C16.8141 7.545 16.51 7.765 16.148 7.765C15.9694 7.765 15.6943 7.545 15.6943 6.92V1.085C15.6943 0.335 15.4915 0 14.893 0H10.4236C9.96987 0 9.69958 0.35 9.69958 0.675C9.69958 1.385 10.7228 1.55 10.829 3.55V7.89C10.829 8.84 10.6649 9.015 10.3029 9.015C9.33758 9.015 6.99183 5.345 5.60176 1.145C5.32182 0.33 5.0467 0 4.31787 0H1.47498C0.664106 0 0.5 0.395 0.5 0.835C0.5 1.615 1.46533 5.49 4.9936 10.61C7.34418 14.105 10.6553 16 13.6671 16C15.4771 16 15.6991 15.58 15.6991 14.855C15.6991 11.515 15.535 11.2 16.4424 11.2C16.8623 11.2 17.5863 11.42 19.2756 13.105C21.2063 15.105 21.5249 16 22.606 16H25.4489C26.2598 16 26.6701 15.58 26.4336 14.75C25.893 13.005 22.2392 9.415 22.0751 9.175C21.6552 8.615 21.7758 8.365 22.0751 7.865C22.0799 7.86 25.5503 2.8 25.9074 1.085Z"/>
    </g>
  </symbol>
  <symbol id="telegram" viewBox="0 0 20 18">
    <g>
    <path d="M19.9434 2.05098L16.9243 16.4739C16.7018 17.4966 16.1009 17.7447 15.2627 17.2634L10.6637 13.8269L8.44574 15.9926C8.20095 16.2408 7.99325 16.4513 7.51851 16.4513L7.84489 11.7063L16.368 3.90084C16.7389 3.56997 16.2864 3.38198 15.7968 3.71285L5.26349 10.4355L0.723777 8.99924C-0.262794 8.68341 -0.285048 7.99911 0.931476 7.51784L18.6675 0.584631C19.4909 0.283841 20.2104 0.787664 19.9434 2.05098Z"/>
    </g>
  </symbol>
  <symbol id="search" viewBox="0 0 20 20">
    <g fill="none">
    <path d="M12.6667 12.6667L18 18M8.22222 14.4444C4.78579 14.4444 2 11.6587 2 8.22222C2 4.78579 4.78579 2 8.22222 2C11.6587 2 14.4444 4.78579 14.4444 8.22222C14.4444 11.6587 11.6587 14.4444 8.22222 14.4444Z" stroke-width="3" stroke-linecap="round" stroke-linejoin="round"/>
    </g>
  </symbol>
  <symbol id="call" viewBox="0 0 20 20">
    <g>
    <path d="M6.15385 0C7.00721 0 7.69231 0.685095 7.69231 1.53846V6.15385C7.69231 7.00721 7.00721 7.69231 6.15385 7.69231H5.0601C6.09375 11.1779 8.82211 13.9123 12.3077 14.9399V13.8462C12.3077 12.9928 12.9988 12.3077 13.8462 12.3077H18.4615C19.3149 12.3077 20 12.9928 20 13.8462V16.1538C20 18.2752 18.2813 20 16.1538 20H15.3846C6.91707 20 0 13.0829 0 4.61538V3.84615C0 1.72476 1.72476 0 3.84615 0H6.15385Z" fill="#D2B88F"/>
    </g>
  </symbol>
  <symbol id="clock" viewBox="0 0 20 20">
    <g>
    <path fill-rule="evenodd" clip-rule="evenodd" d="M0 10C0 4.47715 4.47715 0 10 0C15.5228 0 20 4.47715 20 10C20 15.5228 15.5228 20 10 20C4.47715 20 0 15.5228 0 10ZM13.8321 12.5547C13.5257 13.0142 12.9048 13.1384 12.4453 12.8321L9.8451 11.0986C9.3171 10.7466 9 10.1541 9 9.5196V9.5V5C9 4.44772 9.4477 4 10 4C10.5523 4 11 4.44772 11 5V9.4648L13.5547 11.1679C14.0142 11.4743 14.1384 12.0952 13.8321 12.5547Z" fill="#D2B88F"/>
    </g>
  </symbol>
  <symbol id="location" viewBox="0 0 20 20">
    <g>
    <path d="M9.5 0C5.35813 0 2 3.35813 2 7.5C2 9.13094 2.53469 10.6275 3.42344 11.8531C3.43938 11.8825 3.44187 11.9153 3.46 11.9434L8.46 19.4434C8.69187 19.7913 9.0825 20 9.5 20C9.9175 20 10.3081 19.7913 10.54 19.4434L15.54 11.9434C15.5584 11.9153 15.5606 11.8825 15.5766 11.8531C16.4653 10.6275 17 9.13094 17 7.5C17 3.35813 13.6419 0 9.5 0ZM9.5 10C8.11938 10 7 8.88062 7 7.5C7 6.11938 8.11938 5 9.5 5C10.8806 5 12 6.11938 12 7.5C12 8.88062 10.8806 10 9.5 10Z" fill="#D2B88F"/>
    </g>
  </symbol>
  <symbol id="email" viewBox="0 0 20 20">
    <g>
    <path d="M20 15.0804V5.77406L14.6625 10.4274L20 15.0804Z" fill="#D2B88F"/>
    <path d="M16.8932 0H3.1068C1.39109 0 0 1.39105 0 3.1068V3.19781L8.90172 10.9584C9.21879 11.2337 9.60641 11.3695 10 11.3698C10.3937 11.3695 10.782 11.2337 11.0983 10.9584L20 3.19781V3.1068C20 1.39105 18.6089 0 16.8932 0Z" fill="#D2B88F"/>
    <path d="M12.3741 12.4223C11.696 13.0143 10.845 13.3123 10 13.3116C9.15508 13.3124 8.30476 13.0139 7.62594 12.4223L6.81512 11.7154L0.0804297 17.5865C0.395977 18.9681 1.63 20 3.1068 20H16.8932C18.3708 20 19.6041 18.9681 19.9196 17.5865L13.1849 11.7154L12.3741 12.4223Z" fill="#D2B88F"/>
    <path d="M0 5.77406V15.0804L5.33758 10.427L0 5.77406Z" fill="#D2B88F"/>
    </g>
  </symbol>
  <symbol id="doc" viewBox="0 0 15 20">
    <g>
    <path d="M10.9646 5.86C10.0197 5.86 9.23228 5.08 9.23228 4.1V0H1.73228C0.787402 0 0 0.78 0 1.76V18.24C0 19.2 0.767717 20 1.73228 20H13.2677C14.2126 20 15 19.22 15 18.24V5.86H10.9646ZM10.9449 16.1H4.05512C3.74016 16.1 3.48425 15.84 3.48425 15.52C3.48425 15.2 3.74016 14.94 4.05512 14.94H10.9449C11.2598 14.94 11.5157 15.2 11.5157 15.52C11.5157 15.84 11.2598 16.1 10.9449 16.1ZM3.48425 12.18C3.48425 11.86 3.74016 11.6 4.05512 11.6H10.9252C11.2402 11.6 11.4961 11.86 11.4961 12.18C11.4961 12.5 11.2402 12.76 10.9252 12.76H4.05512C3.74016 12.76 3.48425 12.5 3.48425 12.18ZM10.9449 9.42H4.05512C3.74016 9.42 3.48425 9.16 3.48425 8.84C3.48425 8.52 3.74016 8.26 4.05512 8.26H10.9449C11.2598 8.26 11.5157 8.52 11.5157 8.84C11.5157 9.16 11.2598 9.42 10.9449 9.42ZM10.9646 4.68H14.6654L10.374 0.34V4.1C10.374 4.42 10.6496 4.68 10.9646 4.68Z" fill="#D2B88F"/>
    </g>
  </symbol>
  <symbol id="eye" viewBox="0 0 20 20">
    <g>
    <path fill-rule="evenodd" clip-rule="evenodd" d="M8 8C6.53919 8 5.35041 6.87833 5.35041 5.5C5.35041 4.12167 6.53919 3 8 3C9.46081 3 10.6496 4.12167 10.6496 5.5C10.6496 6.87833 9.46081 8 8 8ZM15.9029 5.31417C14.3387 2.345 11.3111 0.5 8 0.5C4.68889 0.5 1.66129 2.345 0.09715 5.31417L0 5.5L0.09715 5.68583C1.66129 8.655 4.6889 10.5 8 10.5C11.3111 10.5 14.3387 8.655 15.9029 5.68583L16 5.5L15.9029 5.31417Z" fill="#D2B88F"/>
    </g>
  </symbol>
  <symbol id="close" viewBox="0 0 20 20">
    <path d="M15.292 3.16113C15.5996 3.28778 15.889 3.43252 16.1604 3.59535C16.4499 3.77627 16.6399 3.91196 16.7303 4.00243C16.8751 4.14716 16.9384 4.26476 16.9203 4.35523L16.9203 4.51806L11.4926 9.94574L16.8932 15.3463C17.056 15.5091 17.0289 15.6991 16.8117 15.9162C16.5946 16.1333 16.3233 16.3142 15.9976 16.459C15.69 16.5856 15.4277 16.6489 15.2106 16.6489L10 11.4384L4.65373 16.7846C4.36425 16.7484 4.08382 16.6308 3.81244 16.4318C3.55915 16.2509 3.36013 16.0881 3.21539 15.9433C2.98019 15.7081 2.94401 15.5091 3.10684 15.3463L8.50739 9.94574L3.0797 4.51806L3.02542 4.4095C3.00733 4.31904 3.06161 4.21049 3.18825 4.08384C3.24253 4.02956 3.46869 3.87578 3.86672 3.62249C4.26475 3.36919 4.58136 3.25159 4.81656 3.26969L10 8.45313L15.292 3.16113Z" fill="#D2B88F"/>
    <path d="M15.292 3.16113C15.5996 3.28778 15.889 3.43252 16.1604 3.59535C16.4499 3.77627 16.6399 3.91196 16.7303 4.00243C16.8751 4.14716 16.9384 4.26476 16.9203 4.35523L16.9203 4.51806L11.4926 9.94574L16.8932 15.3463C17.056 15.5091 17.0289 15.6991 16.8117 15.9162C16.5946 16.1333 16.3233 16.3142 15.9976 16.459C15.69 16.5856 15.4277 16.6489 15.2106 16.6489L10 11.4384L4.65373 16.7846C4.36425 16.7484 4.08382 16.6308 3.81244 16.4318C3.55915 16.2509 3.36013 16.0881 3.21539 15.9433C2.98019 15.7081 2.94401 15.5091 3.10684 15.3463L8.50739 9.94574L3.0797 4.51806L3.02542 4.4095C3.00733 4.31904 3.06161 4.21049 3.18825 4.08384C3.24253 4.02956 3.46869 3.87578 3.86672 3.62249C4.26475 3.36919 4.58136 3.25159 4.81656 3.26969L10 8.45313L15.292 3.16113Z" stroke="#D2B88F"/>
  </symbol>
  <symbol id="circle-btn" viewBox="0 0 40 40">
    <g>
    <circle cx="20" cy="20" r="20" fill="white"/>
    <path d="M29.707 19.2798C30.098 19.6776 30.098 20.3224 29.707 20.7202L23.343 27.2017C22.953 27.5994 22.319 27.5994 21.929 27.2017C21.538 26.804 21.538 26.1591 21.929 25.7614L27.586 20L21.929 14.2386C21.538 13.8409 21.538 13.1961 21.929 12.7983C22.319 12.4006 22.953 12.4006 23.343 12.7983L29.707 19.2798ZM10 18.9815H29V21.0185L10 21.0185L10 18.9815Z" fill="#D2B88F"/>
    </g>
  </symbol>
  <symbol id="quotes-before" viewBox="0 0 31 24">
    <path opacity="0.4" d="M6.16038 0.5C7.72372 0.5 9.12534 1.01406 10.3652 2.04216C11.6051 3.07027 12.5755 4.3554 13.2763 5.89756C13.9771 7.49684 14.3275 9.09612 14.3275 10.6954C14.3275 13.0943 13.7345 15.122 12.5485 16.7784C11.3086 18.4348 9.77224 19.8056 7.93935 20.8908C6.05256 21.976 4.19272 22.8042 2.35984 23.3754C1.82075 23.6038 1.38949 23.5182 1.06604 23.1184C0.688679 22.7757 0.5 22.3473 0.5 21.8332C0.5 21.3192 0.769541 20.9479 1.30862 20.7194C5.89083 18.8917 8.18194 16.35 8.18194 13.0943C8.18194 12.0662 7.88544 11.2094 7.29245 10.524C6.64555 9.89576 5.94474 9.32459 5.19003 8.81053C4.3814 8.3536 3.68059 7.81099 3.0876 7.1827C2.4407 6.55441 2.11725 5.75477 2.11725 4.78378C2.11725 3.69856 2.52156 2.69901 3.33019 1.78514C4.08491 0.928379 5.0283 0.5 6.16038 0.5ZM22.3329 0.5C23.8962 0.5 25.2978 1.01406 26.5377 2.04216C27.7776 3.07027 28.748 4.3554 29.4488 5.89756C30.1496 7.49684 30.5 9.09612 30.5 10.6954C30.5 13.0943 29.907 15.122 28.721 16.7784C27.4811 18.4348 25.9447 19.8056 24.1119 20.8908C22.2251 21.976 20.3652 22.8042 18.5323 23.3754C17.9933 23.6038 17.562 23.5182 17.2385 23.1184C16.8612 22.7757 16.6725 22.3473 16.6725 21.8332C16.6725 21.3192 16.942 20.9479 17.4811 20.7194C22.0633 18.8917 24.3544 16.35 24.3544 13.0943C24.3544 12.0662 24.058 11.2094 23.465 10.524C22.8181 9.89576 22.1173 9.32459 21.3625 8.81053C20.5539 8.3536 19.8531 7.81099 19.2601 7.1827C18.6132 6.55441 18.2898 5.75477 18.2898 4.78378C18.2898 3.69856 18.6941 2.69901 19.5027 1.78514C20.2574 0.928379 21.2008 0.5 22.3329 0.5Z" fill="#D2B88F"/>
  </symbol>
  <symbol id="quotes-after" viewBox="0 0 31 24">
    <path opacity="0.4" d="M24.8396 23.5C23.2763 23.5 21.8747 22.9859 20.6348 21.9578C19.3949 20.9297 18.4245 19.6446 17.7237 18.1024C17.0229 16.5032 16.6725 14.9039 16.6725 13.3046C16.6725 10.9057 17.2655 8.87803 18.4515 7.22164C19.6914 5.56524 21.2278 4.19444 23.0606 3.10921C24.9474 2.02399 26.8073 1.19579 28.6402 0.624617C29.1792 0.396151 29.6105 0.481828 29.934 0.881645C30.3113 1.22435 30.5 1.65272 30.5 2.16678C30.5 2.68083 30.2305 3.05209 29.6914 3.28056C25.1092 5.10831 22.8181 7.65002 22.8181 10.9057C22.8181 11.9338 23.1146 12.7906 23.7075 13.476C24.3544 14.1042 25.0553 14.6754 25.81 15.1895C26.6186 15.6464 27.3194 16.189 27.9124 16.8173C28.5593 17.4456 28.8828 18.2452 28.8828 19.2162C28.8828 20.3014 28.4784 21.301 27.6698 22.2149C26.9151 23.0716 25.9717 23.5 24.8396 23.5ZM8.66712 23.5C7.10377 23.5 5.70216 22.9859 4.46226 21.9578C3.22237 20.9297 2.25202 19.6446 1.55121 18.1024C0.850404 16.5032 0.5 14.9039 0.5 13.3046C0.5 10.9057 1.09299 8.87803 2.27898 7.22164C3.51887 5.56524 5.05526 4.19444 6.88814 3.10921C8.77493 2.02399 10.6348 1.19579 12.4677 0.624617C13.0067 0.396151 13.438 0.481828 13.7615 0.881645C14.1388 1.22435 14.3275 1.65272 14.3275 2.16678C14.3275 2.68083 14.058 3.05209 13.5189 3.28056C8.93666 5.10831 6.64555 7.65002 6.64555 10.9057C6.64555 11.9338 6.94205 12.7906 7.53504 13.476C8.18194 14.1042 8.88275 14.6754 9.63747 15.1895C10.4461 15.6464 11.1469 16.189 11.7399 16.8173C12.3868 17.4456 12.7102 18.2452 12.7102 19.2162C12.7102 20.3014 12.3059 21.301 11.4973 22.2149C10.7426 23.0716 9.79919 23.5 8.66712 23.5Z" fill="#D2B88F"/>
  </symbol>
  <symbol id="" viewBox="0 0 20 20">
  </symbol>
  <symbol id="" viewBox="0 0 20 20">
    
  </symbol>
  <symbol id="totop" viewBox="0 0 65 65">
    <g>
    <circle cx="32.5" cy="32.5" r="32.5" transform="rotate(-90 32.5 32.5)" fill="#D2B88F"/>
    <path d="M32.1422 16.7261C32.7886 16.0908 33.8365 16.0908 34.4828 16.7261L45.0153 27.0676C45.6616 27.7014 45.6616 28.7316 45.0153 29.3654C44.3689 30.0008 43.321 30.0008 42.6747 29.3654L33.3125 20.1728L23.9502 29.3654C23.304 30.0008 22.2562 30.0008 21.6097 29.3654C20.9634 28.7317 20.9634 27.7014 21.6097 27.0676L32.1422 16.7261ZM31.6575 48.75L31.6575 17.875L34.9675 17.875L34.9675 48.75L31.6575 48.75Z" fill="white"/>
    </g>
  </symbol>
</svg>
