<svg width="47" height="690" viewBox="0 0 47 690" fill="none" xmlns="http://www.w3.org/2000/svg">
<path d="M23.5033 72.4878L45.9804 58.9264M23.5033 72.4878L23.5009 56.5699M23.5033 72.4878V89.2312M45.9804 58.9264V89.2312M45.9804 58.9264L46 11.4336M23.4836 26.1616L23.4967 26.1531M23.4967 26.1531L46 11.4336M23.4967 26.1531V5.25977M23.4967 26.1531L23.5009 56.5699M46 11.4336L45.9804 -0.740234M1.01963 56.5804C1.01963 53.7608 1.01839 50.4987 1.01699 47.7118M1.01699 47.7118C1.01518 44.0887 1.01309 41.2688 1.01309 41.2688L1.01631 41.271M1.01699 47.7118L1.01631 41.271M1.01699 47.7118L1.01962 149.793M1.01631 41.271L23.5009 56.5699M1.01631 41.271L1.01309 10.9659C1.01309 4.48759 1 5.25977 1 5.25977M23.5009 56.5699L23.5164 56.5804M23.5065 192.208L1 178.154C1 178.154 1.01962 186.02 1.01962 192.208V208.388M1 191.557V148.053C1 141.866 1.01962 132.903 1.01962 132.903L23.4869 148.053V191.557M23.4935 208.388V164.884L45.9804 149.793C45.9804 149.793 45.9804 158.703 45.9804 164.884V208.388M45.9804 177.058V133.554M46 132.9C46 115.911 45.9673 89.3997 45.9673 89.3997M23.5131 161.927V118.424C23.5131 112.236 23.5065 102.822 23.5065 102.822L46 118.424V161.927M23.5065 89.2311C23.5065 89.2311 23.5065 101.415 23.5065 118.404M23.5065 430.052L1 415.997C1 415.997 1.01962 423.864 1.01962 430.052V506.793M1 429.4V385.897C1 379.709 1.01962 370.747 1.01962 370.747L23.4869 385.897V429.4M23.4935 446.231V402.728L45.9804 387.636C45.9804 387.636 45.9804 396.546 45.9804 402.728V446.231M45.9804 414.901V371.398M46 370.744C46 353.754 45.9673 327.243 45.9673 327.243M23.5131 399.771V356.267C23.5131 350.079 23.5065 340.666 23.5065 340.666L46 356.267V399.771M1.01962 327.075V387.636M23.5065 327.075C23.5065 327.075 23.5065 339.258 23.5065 356.248M23.5065 311.148L1 297.093C1 297.093 1.01962 304.96 1.01962 311.148V327.327M1 310.496V266.993C1 260.805 1.01962 251.843 1.01962 251.843L23.4869 266.993V310.496M23.4935 327.327V283.824L45.9804 268.732C45.9804 268.732 45.9804 277.642 45.9804 283.824V327.327M45.9804 295.997V252.494M46 251.84C46 234.85 45.9673 208.339 45.9673 208.339M23.5131 280.867V237.363C23.5131 231.175 23.5065 221.762 23.5065 221.762L46 237.363V280.867M1.01962 208.171V268.732M23.5065 208.171C23.5065 208.171 23.5065 220.354 23.5065 237.344M23.5065 549.208L1 535.154C1 535.154 1.01962 543.02 1.01962 549.208V565.388M1 548.557V505.053C1 498.866 1.01962 489.903 1.01962 489.903L23.4869 505.053V548.557M23.4935 565.388V521.884L45.9804 506.793C45.9804 506.793 45.9804 515.703 45.9804 521.884V565.388M45.9804 534.058V490.555M46 489.9C46 472.911 45.9673 446.4 45.9673 446.4M23.5131 518.927V475.424C23.5131 469.236 23.5065 459.822 23.5065 459.822L46 475.424V518.927M23.5065 446.231C23.5065 446.231 23.5065 458.415 23.5065 475.404M23.5065 787.052L1 772.997C1 772.997 1.01962 780.864 1.01962 787.052V803.231M1 786.4V742.897C1 736.709 1.01962 727.747 1.01962 727.747L23.4869 742.897V786.4M23.4935 803.231V759.728L45.9804 744.636C45.9804 744.636 45.9804 753.546 45.9804 759.728V803.231M45.9804 771.901V728.398M46 727.744C46 710.754 45.9673 684.243 45.9673 684.243M23.5131 756.771V713.267C23.5131 707.079 23.5065 697.666 23.5065 697.666L46 713.267V756.771M1.01962 684.075V744.636M23.5065 684.075C23.5065 684.075 23.5065 696.258 23.5065 713.248M23.5065 668.148L1 654.093C1 654.093 1.01962 661.96 1.01962 668.148V684.327M1 667.496V623.993C1 617.805 1.01962 608.843 1.01962 608.843L23.4869 623.993V667.496M23.4935 684.327V640.824L45.9804 625.732C45.9804 625.732 45.9804 634.642 45.9804 640.824V684.327M45.9804 652.997V609.494M46 608.84C46 591.85 45.9673 565.339 45.9673 565.339M23.5131 637.867V594.363C23.5131 588.175 23.5065 578.762 23.5065 578.762L46 594.363V637.867M1.01962 565.171V625.732M23.5065 565.171C23.5065 565.171 23.5065 577.354 23.5065 594.344" stroke="url(#paint0_linear_906_2429)" stroke-miterlimit="10"/>
<defs>
<linearGradient id="paint0_linear_906_2429" x1="1" y1="335.731" x2="46" y2="335.731" gradientUnits="userSpaceOnUse">
<stop stop-color="#D2B88F"/>
<stop offset="0.177083" stop-color="#D2B88F" stop-opacity="0.8"/>
<stop offset="1" stop-color="#D2B88F" stop-opacity="0.72"/>
</linearGradient>
</defs>
</svg>
