<svg width="207" height="760" viewBox="0 0 207 760" fill="none" xmlns="http://www.w3.org/2000/svg">
<path d="M82.5881 243.732L123.424 211.396M123.424 211.396C123.424 211.396 123.388 229.946 123.388 243.732V247.375M123.424 211.396L123.412 80.4781C123.412 66.6924 123.388 49.5129 123.388 49.5129L82.6119 80.4781V177.502M164.2 211.396L204.964 182.537C204.964 182.537 205 197.61 205 211.396V247.375M41.8356 211.29L1 179.946C1 179.946 1.0356 197.49 1.0356 211.29V247.375M204.964 209.838V112.814C204.964 99.0286 205 81.4733 205 81.4733L164.164 112.814V247.375M1 209.838V112.814C1 99.0141 1.0356 79.0255 1.0356 79.0255L41.8 112.814V209.838M41.8119 247.375V150.351L82.6119 116.693C82.6119 116.693 82.6119 136.565 82.6119 150.351V247.375M123.424 177.545C123.424 163.745 123.412 144.962 123.412 144.962L164.224 177.545M82.6475 79.0188C82.6475 41.1289 82.5881 -17.9979 82.5881 -17.9979M123.388 -17.9979C123.388 -17.9979 123.388 41.1355 123.388 79.0255M123.388 116.562V19.5389M164.188 19.5389V116.562M164.2 46.6892V-18.3738M205 -18.3738V115.967M41.8475 143.756V46.7327C41.8475 32.9324 41.8356 11.9378 41.8356 11.9378L82.6475 46.7327V143.756M1.0356 -18.3738V116.693M41.8356 -18.3738C41.8356 -18.3738 41.8356 8.79919 41.8356 46.6892M82.5881 774.181L123.424 741.845M123.424 741.845C123.424 741.845 123.388 760.395 123.388 774.181V777.824M123.424 741.845L123.412 610.927C123.412 597.141 123.388 579.962 123.388 579.962L82.6119 610.927V707.951M164.2 741.845L204.964 712.986C204.964 712.986 205 728.059 205 741.845V777.824M41.8356 741.739L1 710.395C1 710.395 1.0356 727.939 1.0356 741.739V777.824M204.964 740.287V643.263C204.964 629.478 205 611.922 205 611.922L164.164 643.263V777.824M1 740.287V643.263C1 629.463 1.0356 609.474 1.0356 609.474L41.8 643.263V740.287M41.8119 777.824V680.8L82.6119 647.142C82.6119 647.142 82.6119 667.014 82.6119 680.8V777.824M123.424 707.994C123.424 694.194 123.412 675.411 123.412 675.411L164.224 707.994M82.6475 609.468C82.6475 571.578 82.5881 512.451 82.5881 512.451M123.388 512.451C123.388 512.451 123.388 571.584 123.388 609.474M123.388 647.011V549.988M164.188 549.988V647.011M164.2 577.138V512.075M205 512.075V646.416M41.8475 674.205V577.182C41.8475 563.381 41.8356 542.387 41.8356 542.387L82.6475 577.182V674.205M1.0356 512.075V647.142M41.8356 512.075C41.8356 512.075 41.8356 539.248 41.8356 577.138M82.5881 508.996L123.424 476.66M123.424 476.66C123.424 476.66 123.388 495.21 123.388 508.996V512.639M123.424 476.66L123.412 345.742C123.412 331.956 123.388 314.777 123.388 314.777L82.6119 345.742V442.765M164.2 476.66L204.964 447.801C204.964 447.801 205 462.874 205 476.66V512.639M41.8356 476.554L1 445.21C1 445.21 1.0356 462.754 1.0356 476.554V512.639M204.964 475.102V378.078C204.964 364.293 205 346.737 205 346.737L164.164 378.078V512.639M1 475.102V378.078C1 364.278 1.0356 344.289 1.0356 344.289L41.8 378.078V475.102M41.8119 512.639V415.615L82.6119 381.957C82.6119 381.957 82.6119 401.829 82.6119 415.615V512.639M123.424 442.809C123.424 429.009 123.412 410.226 123.412 410.226L164.224 442.809M82.6475 344.283C82.6475 306.393 82.5881 247.266 82.5881 247.266M123.388 247.266C123.388 247.266 123.388 306.399 123.388 344.289M123.388 381.826V284.803M164.188 284.803V381.826M164.2 311.953V246.89M205 246.89V381.231M41.8475 409.02V311.997C41.8475 298.196 41.8356 277.202 41.8356 277.202L82.6475 311.997V409.02M1.0356 246.89V381.957M41.8356 246.89C41.8356 246.89 41.8356 274.063 41.8356 311.953" stroke="#D2B88F" stroke-width="2.65" stroke-miterlimit="10"/>
</svg>
